<svg width="81" height="91" viewBox="0 0 81 91" fill="none" xmlns="http://www.w3.org/2000/svg">
<g opacity="0.1">
<path d="M27.7612 90.3582C21.2091 91.1129 14.657 89.352 7.8529 88.3457C5.83686 88.0942 4.32484 86.3333 2.56081 85.0755C-0.71524 82.5599 -0.715241 82.0568 1.8048 78.535C3.31682 76.7741 4.07284 74.7616 5.08085 72.4976C5.83686 70.4851 7.34889 68.9757 8.60891 67.4664C10.3729 64.9508 11.885 62.4352 13.649 59.9196C16.925 55.14 20.2011 50.612 23.2251 45.5808C24.9892 42.5621 27.2572 39.5434 30.0293 37.0278C30.5333 36.5247 31.0373 35.77 31.2893 35.2669C32.2973 33.506 33.5573 31.7451 35.0693 30.4873C36.8334 28.978 37.5894 26.7139 38.8494 24.953C42.1255 20.6765 43.3855 15.3938 46.1575 10.8658C47.1655 9.35641 47.9215 7.84706 48.9296 6.08616C49.6856 4.57681 50.4416 3.31901 50.1896 1.55811C49.9376 0.551872 51.1976 -0.202803 52.4576 0.0487557C53.7176 0.300314 54.7257 1.30655 55.7337 2.06122C59.2617 4.32525 63.0418 6.08616 65.5618 9.60797C67.8299 12.8782 70.0979 16.1485 72.3659 19.4187C75.894 24.953 78.666 30.9904 79.9261 37.7825C81.4381 44.323 80.9341 51.1151 79.4221 57.4041C78.666 59.9196 77.91 62.6868 76.146 64.6992C75.894 65.4539 75.642 65.7055 75.642 66.2086C72.3659 73.2522 67.0739 78.535 60.7738 83.063C54.7257 87.5911 47.9215 89.352 40.6134 90.1066C36.3294 90.3582 32.2973 90.6098 27.7612 90.3582ZM60.0177 8.8533C60.0177 9.10486 60.2697 9.60797 60.5217 9.35641C61.0258 9.10486 60.5217 8.8533 60.0177 8.8533C60.0177 8.35018 59.7657 8.09862 59.5137 8.35018C59.7657 8.60174 60.0177 8.8533 60.0177 8.8533ZM40.6134 28.7264C43.3855 26.2108 45.6535 23.4437 46.9135 19.9219C47.6695 17.9094 49.1816 16.1485 50.4416 14.3876C50.9456 13.3813 52.2056 12.8782 53.2136 12.1236C53.9696 11.6204 54.4736 11.6204 55.4817 12.1236C58.0017 13.3813 59.5137 15.6454 60.0177 18.4125C60.5217 21.4312 61.5298 23.6952 63.0418 26.2108C64.0498 27.9717 63.2938 29.7326 62.2858 31.4935C61.2778 32.7513 60.0177 32.7513 58.7577 32.2482C55.7337 31.242 52.4576 31.9967 49.4336 32.4998C46.9135 33.0029 44.6455 33.506 42.1255 33.2545C40.6134 33.0029 39.6054 32.7513 39.6054 31.242C36.8334 33.506 34.5653 36.0216 33.0533 39.0403C33.0533 39.2919 32.8013 39.2919 32.5493 39.5434C29.7773 41.8074 27.7612 44.5746 26.2492 47.5933C23.2251 52.876 19.6971 57.4041 16.421 62.4352C15.161 64.1961 14.405 66.2086 12.893 67.9695C9.86893 71.7429 7.34889 75.5163 5.58486 79.7928C11.633 82.0568 17.6811 81.8052 23.9812 82.0568C27.0052 82.0568 30.2813 82.0568 33.3053 81.5537C37.0854 81.0505 40.6134 80.2959 43.8895 78.7865C48.9296 76.7741 53.2136 74.0069 57.2457 70.2335C57.7497 69.7304 58.0017 69.4789 58.5057 68.9757C61.0258 66.2086 62.5378 62.6868 64.8058 59.9196C67.0739 57.1525 67.8299 53.6307 68.8379 50.3604C69.8459 46.587 68.8379 42.5621 68.8379 38.5372C69.0899 35.2669 68.0819 32.4998 66.8218 29.4811C65.5618 26.4624 64.0498 23.1921 63.0418 19.9219C61.0258 14.3876 57.7497 9.85953 53.2136 5.58304C51.7016 9.10486 49.6856 11.872 48.1735 14.8907C45.6535 19.4187 43.6375 24.1984 40.6134 28.7264C40.6134 28.4749 40.3614 28.7264 40.6134 28.7264C40.6134 28.978 40.6134 28.7264 40.6134 28.7264ZM3.31682 81.5537C3.31682 82.3083 4.07284 82.5599 4.32484 82.8114C6.34087 84.8239 8.86091 85.5786 11.885 85.8302C16.169 86.3333 20.2011 87.0879 24.4852 87.0879C31.0373 87.3395 37.8414 87.3395 44.3935 86.0817C49.4336 85.0755 54.4736 83.5661 58.7577 80.2959C61.7818 78.0318 64.3018 75.5163 66.8218 73.0007C70.6019 69.2273 72.6179 64.6992 75.138 60.1712C76.902 57.1525 76.902 53.3791 77.658 50.1089C78.162 47.8448 78.414 45.3293 77.91 43.0652C77.658 41.8074 77.406 40.2981 77.154 38.7887C76.902 35.77 75.894 33.0029 74.886 30.2358C73.122 26.2108 70.8539 22.1859 68.3339 18.4125C66.5698 16.1485 65.0578 13.6329 63.5458 11.3689C62.7898 10.3626 62.0338 9.35641 60.7738 8.8533C60.7738 9.60797 61.0258 9.85953 61.2778 10.1111C63.2938 13.3813 65.3098 16.6516 66.3178 20.425C66.8218 22.1859 67.8299 23.9468 68.5859 25.7077C70.0979 29.2295 71.8619 32.7513 71.6099 36.5247C71.6099 38.0341 71.3579 39.5434 71.6099 41.0528C72.6179 46.0839 71.3579 50.8635 69.5939 55.6432C68.5859 58.6618 66.0658 60.6743 64.8058 63.4415C62.5378 67.9695 59.0097 71.4913 55.2297 74.51C51.7016 77.2772 47.1655 79.5412 42.8815 81.0505C34.5653 83.8177 25.9972 84.3208 17.177 83.5661C12.389 84.0692 7.8529 83.5661 3.31682 81.5537ZM44.1415 29.9842C45.9055 29.9842 47.6695 29.2295 49.1816 28.978C52.2056 28.4748 54.9777 28.2233 58.0017 28.978C58.5057 29.2295 59.5137 29.7326 60.0177 28.7264C60.7738 27.7202 60.2697 27.2171 59.7657 26.4624C58.5057 24.4499 57.2457 22.1859 56.9937 19.6703C56.9937 18.161 56.2377 16.9032 55.4817 15.6454C54.9777 14.8907 54.2216 14.3876 53.4656 15.3938C51.9536 16.9032 50.9456 18.6641 49.9376 20.6765C48.4255 23.6952 47.1655 26.7139 44.6455 28.978C44.1415 29.2295 43.8895 29.4811 44.1415 29.9842Z" fill="#070707"/>
<path d="M60.0178 8.85327C59.7658 8.60171 59.7658 8.60171 59.5138 8.35015C60.0178 8.09859 60.2698 8.35015 60.0178 8.85327C60.2698 8.85327 60.2698 8.85327 60.0178 8.85327Z" fill="#FCFCFC"/>
<path d="M60.2697 8.60156C60.5217 8.85312 61.0257 8.85312 60.5217 9.35624C60.5217 9.60779 60.2697 9.10468 60.2697 8.60156C60.2697 8.85312 60.2697 8.85312 60.2697 8.60156Z" fill="#FCFCFC"/>
<path d="M40.6135 28.7263C40.6135 28.7263 40.6135 28.9778 40.6135 28.7263C40.3615 28.7263 40.6135 28.4747 40.6135 28.7263C40.6135 28.4747 40.6135 28.4747 40.6135 28.7263Z" fill="#FCFCFC"/>
<path d="M50.1897 35.0154C52.2057 34.7638 54.4737 35.2669 56.7418 34.2607C56.9938 34.0091 57.4978 34.0091 57.7498 34.2607C60.0178 36.0216 63.0419 36.2732 64.3019 39.2919C65.5619 41.8074 66.0659 44.323 65.3099 47.3417C64.8059 49.8573 64.0499 52.1213 62.0339 53.8822C58.5058 56.9009 56.2378 60.6743 54.2217 64.6993C53.2137 66.7117 50.6937 67.2148 48.6776 67.4664C45.6536 67.718 43.3856 66.4602 41.8735 63.693C40.8655 61.6806 38.8495 60.4228 36.8334 59.6681C34.0614 58.4103 31.7934 56.6494 30.0293 54.1338C29.5253 53.3791 29.0213 52.6244 27.7613 52.6244C26.5013 52.6244 26.2493 51.1151 27.0053 50.3604C28.0133 49.3542 28.5173 48.0964 29.7773 47.5933C30.2813 47.3417 30.5333 46.8386 30.5333 46.3355C31.0374 44.323 32.5494 42.8137 33.0534 40.8012C33.3054 40.2981 33.5574 39.795 34.0614 39.5434C35.8254 38.7887 37.3375 37.2794 39.3535 37.2794C41.6215 37.2794 43.3856 35.77 45.6536 35.5185C47.1656 35.2669 48.4256 35.0154 50.1897 35.0154ZM63.0419 44.5746C62.7899 42.3106 62.0339 40.0465 59.5138 38.5372C58.0018 37.7825 56.4898 37.2794 54.9777 37.7825C53.9697 38.0341 52.9617 37.7825 51.9537 37.7825C50.1897 37.7825 48.6776 37.7825 46.9136 38.0341C44.6456 38.2856 42.8815 39.795 40.6135 39.795C37.8415 39.795 35.8254 41.3043 34.8174 44.0715C34.3134 45.5808 33.5574 47.3417 32.8014 48.8511C31.5414 51.1151 31.5414 51.1151 32.8014 53.1276C33.8094 54.6369 35.0694 55.8947 36.8334 56.6494C40.1095 58.1587 43.1335 59.9196 44.8976 63.4415C45.6536 64.6993 47.1656 64.9508 48.4256 64.6993C49.9377 64.4477 51.4497 64.1961 52.2057 62.6868C53.7177 59.165 55.7338 55.6432 58.7578 53.3791C61.5298 50.8635 62.2859 47.8448 63.0419 44.5746Z" fill="#070707"/>
<path d="M27.5092 77.5286C27.0052 77.5286 26.7531 77.5286 26.2491 77.5286C24.2331 77.2771 22.2171 77.0255 20.453 78.5349C19.697 79.2895 18.437 79.038 17.429 78.5349C15.917 77.7802 14.4049 77.7802 13.1449 76.5224C12.6409 76.0193 12.1369 75.5162 12.1369 75.0131C11.8849 71.7428 11.6329 68.4725 14.4049 65.957C17.429 63.4414 19.445 60.1711 21.2091 56.6493C22.9731 53.6306 25.2411 54.1337 27.5092 55.6431C30.2812 57.6555 33.3053 59.4164 36.5813 60.9258C39.8574 62.6867 41.8734 66.9632 40.8654 70.485C40.3614 72.2459 38.3453 73.7553 36.5813 73.7553C35.0693 73.7553 33.5573 73.7553 32.8012 75.5162C32.2972 76.2708 31.5412 76.774 30.5332 76.774C29.7772 77.5286 28.5172 77.5286 27.5092 77.5286ZM27.7612 74.7615C28.5172 74.5099 30.0292 75.5162 30.7852 74.2584C32.0452 71.9944 34.0613 71.7428 36.3293 71.7428C37.5893 71.7428 38.0933 70.9881 38.3453 69.9819C38.8493 67.2148 37.3373 64.6992 34.5653 63.4414C33.3053 62.9383 32.2972 62.4351 31.0372 61.6805C29.2732 60.4227 27.5092 59.668 25.7451 58.4102C24.9891 57.9071 24.4851 57.9071 23.7291 58.6618C22.9731 59.668 22.7211 60.9258 21.9651 61.932C20.453 64.6992 17.933 66.4601 16.169 68.9757C15.413 69.9819 14.657 71.2397 14.1529 72.4975C13.9009 73.5037 13.9009 74.7615 15.161 75.0131C16.925 75.5162 18.437 77.2771 20.201 75.5162C21.2091 74.5099 22.2171 74.0068 23.4771 74.5099C24.9891 74.7615 26.2491 74.7615 27.7612 74.7615Z" fill="#070707"/>
</g>
</svg>
