<svg width="155" height="88" viewBox="0 0 155 88" fill="none" xmlns="http://www.w3.org/2000/svg">
<g opacity="0.1">
<path d="M133.907 36.0418C137.196 37.4768 136.665 40.4441 135.529 42.8278C134.387 44.9155 132.628 45.8276 130.561 46.1519L130.264 46.1559C128.221 47.6639 126.117 46.2127 124.321 45.3493C122.821 44.4818 121.037 44.2102 119.247 43.6426C119.247 43.6426 118.951 43.6467 118.655 43.6508C118.075 44.2507 116.896 44.5629 116.618 45.4547C117.525 46.3303 118.723 46.9059 119.914 47.1856C121.105 47.4653 122.012 48.341 123.209 48.9166C124.111 49.4963 124.16 51.8637 123.598 53.3514C122.764 56.0269 120.709 56.9431 118.357 57.8633C117.475 58.1714 116.308 59.0754 115.419 59.0875C115.123 59.0916 114.531 59.0997 114.234 59.1037C112.142 58.2444 109.76 57.6849 107.655 56.2337C107.05 55.65 106.458 55.6581 105.557 55.0784C104.353 54.2068 103.465 54.219 102.897 55.4108C102.329 56.6026 101.452 57.2067 100.273 57.5188C102.063 58.0863 103.865 59.2457 105.655 59.8132C107.445 60.3807 108.655 61.5482 109.87 63.0116C110.778 63.8872 110.506 65.075 109.642 66.2708C107.617 68.6666 104.982 70.1827 102.352 71.9948C101.185 72.8988 99.6919 72.3272 98.2045 72.0516C97.9082 72.0556 97.0133 71.7719 96.1245 71.784C95.2357 71.7962 94.637 71.5084 94.0322 70.9246C91.6253 69.1815 88.6442 68.3343 86.5212 65.9953C86.2618 67.7749 85.3854 68.3789 83.9041 68.3992C83.3115 68.4073 82.4228 68.4195 82.4412 69.3073C82.4535 69.8991 83.3423 69.8869 83.6447 70.1788C86.3356 71.326 89.0327 72.7691 91.7236 73.9163C92.3223 74.2042 92.6185 74.2001 93.2172 74.4879C95.0071 75.0554 95.9327 76.8188 95.3771 78.6025C93.9757 82.4698 91.0684 85.1737 86.9454 86.4141C86.0628 86.7222 85.4579 86.1385 84.8654 86.1466C82.7793 85.5831 80.3969 85.0237 78.3108 84.4603C75.3359 83.909 73.2191 81.8659 70.522 80.4227C69.6209 79.8431 69.01 78.9634 68.1089 78.3837C67.8065 78.0918 67.8065 78.0918 67.214 78.0999C64.2575 78.4364 61.869 77.5811 59.4682 76.1339C56.7711 74.6908 53.7901 73.8436 50.8029 72.7004C48.4205 72.141 46.3221 70.9857 44.2175 69.5344C41.5205 68.0913 38.8357 67.24 36.4287 65.4969C34.3241 64.0457 32.5159 62.5904 30.7014 60.8392C29.7942 59.9636 28.887 59.088 27.9859 58.5083C25.5912 57.357 23.7829 55.9017 22.5487 53.5505C21.3206 51.4953 19.2222 50.34 17.13 49.4806C14.7353 48.3293 12.0505 47.478 9.65584 46.3268C8.75477 45.7471 7.87214 46.0552 6.97106 45.4755C3.37906 43.7486 1.83014 40.5137 1.1577 36.6748C1.13926 35.787 1.12081 34.8993 0.806111 34.0155C0.491409 33.1318 0.769226 32.24 1.3433 31.3441C2.80616 30.436 3.65806 28.6483 5.11476 27.4444C7.1517 25.6404 9.81189 25.308 12.4659 24.6796C15.12 24.0513 18.0764 23.7148 21.0513 24.2661C22.5388 24.5418 24.3102 24.2215 25.773 23.3135C27.8223 22.1014 29.5691 20.5974 31.6245 19.6813C33.97 18.4651 36.3216 17.5449 38.9756 16.9165C41.0372 16.2963 43.1294 17.1557 45.2155 17.7192C47.0054 18.2867 48.4744 17.6746 50.2458 17.3543C50.8383 17.3462 51.1284 17.0462 50.8137 16.1625C50.5052 15.5747 50.7891 14.9788 51.6841 15.2625C51.9803 15.2585 51.9803 15.2585 52.2766 15.2544C53.7272 13.7545 55.7887 13.1343 57.2454 11.9303C58.1157 11.0304 59.3008 11.0142 60.4858 10.9979C61.9671 10.9777 63.4484 10.9574 64.9297 10.9371C66.1209 11.2168 67.0035 10.9087 67.5837 10.3088C68.7565 9.70069 69.9292 9.09262 70.7996 8.19268C73.1266 6.08876 75.4721 4.87261 78.7371 5.12393C80.8109 5.09555 82.8725 4.47531 84.323 2.97541C86.6501 0.871489 89.3103 0.539066 91.6926 1.09847C94.9638 1.64572 98.2411 2.48888 101.234 3.92796C103.333 5.08327 105.721 5.9386 108.098 6.20209C110.776 6.75744 113.171 7.9087 115.566 9.05996C119.158 10.7868 122.75 12.5137 126.632 13.9406C127.23 14.2285 127.527 14.2244 127.835 14.8122C129.958 17.1512 132.939 17.9984 135.926 19.1416C138.019 20.001 139.525 21.1644 141.327 22.3238C141.629 22.6156 141.932 22.9075 142.228 22.9034C143.11 22.5954 143.123 23.1872 142.839 23.7831C142.845 24.079 142.851 24.375 142.851 24.375C143.444 24.3669 143.431 23.775 143.728 23.7709C144.018 23.471 144.308 23.171 144.616 23.7588C144.919 24.0507 144.635 24.6466 144.338 24.6506C143.45 24.6628 143.758 25.2506 143.764 25.5465C142.913 27.3342 144.098 27.318 145.295 27.8936C147.387 28.753 149.479 29.6124 151.578 30.7677C153.078 31.6352 153.398 32.8149 152.244 34.3107C150.794 35.8106 149.343 37.3105 147.584 38.2226C146.121 39.1307 144.343 39.155 142.838 37.9916C141.332 36.8282 139.548 36.5566 137.752 35.6931C135.95 34.5337 134.765 34.55 133.907 36.0418ZM89.2502 54.7096C88.67 55.3095 88.6884 56.1973 88.4045 56.7932C88.9847 56.1933 89.2625 55.3014 89.2502 54.7096C89.5465 54.7055 89.5403 54.4096 89.5342 54.1137C89.2379 54.1177 89.2441 54.4137 89.2502 54.7096ZM121.359 31.1813C120.483 31.7854 120.507 32.9691 119.933 33.865C120.822 33.8528 121.118 33.8487 121.1 32.961C121.088 32.3691 121.372 31.7732 121.359 31.1813C121.656 31.1773 121.649 30.8814 121.359 31.1813C121.353 30.8854 121.353 30.8854 121.359 31.1813ZM139.03 25.9073C139.913 25.5992 140.518 26.183 141.413 26.4667C141.715 26.7586 142.308 26.7505 142.295 26.1586C142.579 25.5627 142.277 25.2709 141.691 25.5749C141.394 25.5789 141.098 25.583 141.388 25.283C141.654 23.7993 140.469 23.8156 140.16 23.2278C139.586 24.1236 139.006 24.7236 139.03 25.9073C138.728 25.6154 138.728 25.6154 139.03 25.9073C138.734 25.9114 138.734 25.9114 139.03 25.9073ZM83.3411 84.0954L83.6374 84.0913C83.3411 84.0954 83.3349 83.7995 83.3411 84.0954C83.5697 80.8362 85.008 78.7444 87.6436 77.2283C88.8163 76.6202 89.6867 75.7203 91.1618 75.4041C88.7672 74.2528 86.3663 72.8056 83.6816 71.9543C82.4842 71.3787 81.2869 70.8031 80.0773 69.6356C79.1762 69.0559 75.905 68.5087 75.3248 69.1086C73.8742 70.6085 71.8127 71.2288 70.356 72.4328C70.0659 72.7327 69.7758 73.0327 69.4918 73.6286C68.6707 76.896 68.6707 76.896 71.38 78.9309L71.6825 79.2228C73.4785 80.0863 74.6942 81.5497 76.4902 82.4131C78.8726 82.9725 80.9649 83.8319 83.3411 84.0954ZM88.5752 7.94936C88.8714 7.94531 88.8714 7.94531 88.5752 7.94936C88.5629 7.35751 88.5506 6.76566 88.242 6.17786C87.9335 5.59007 87.9212 4.99822 88.5137 4.99011C89.1062 4.982 89.1124 5.27792 89.1247 5.86977C89.4455 7.04942 89.7602 7.93314 90.0811 9.11278C90.0933 9.70464 90.6859 9.69652 90.976 9.39654C91.2722 9.39249 91.2661 9.09656 90.9637 8.80469C90.9575 8.50877 90.9575 8.50877 90.9514 8.21284C90.9391 7.62099 90.0319 6.74538 91.2169 6.72916C92.1057 6.717 91.834 7.90475 91.8402 8.20068C91.8709 9.6803 92.4757 10.264 93.9632 10.5397C93.9509 9.94784 93.6485 9.65597 93.6362 9.06412C93.3338 8.77225 93.0252 8.18446 93.9078 7.87637C94.4942 7.57233 94.5127 8.46011 94.8151 8.75198C95.1421 10.2275 95.4752 11.999 97.549 11.9707C97.5367 11.3788 97.222 10.4951 96.9135 9.90729C96.9073 9.61136 96.5988 9.02357 97.1913 9.01546C97.4814 8.71548 97.79 9.30327 97.7961 9.5992C97.8023 9.89512 98.1047 10.187 98.117 10.7788C98.16 12.8503 99.0795 14.3178 100.876 15.1812C100.555 14.0016 100.536 13.1138 100.215 11.9342C100.203 11.3423 100.203 11.3423 100.493 11.0423C101.08 10.7383 101.382 11.0302 101.394 11.622C101.419 12.8057 102.332 13.9772 101.77 15.465C101.777 15.7609 101.777 15.7609 101.777 15.7609C102.375 16.0487 102.986 16.9284 103.875 16.9162C104.486 17.7959 105.375 17.7837 106.566 18.0634C106.245 16.8838 106.22 15.7001 105.9 14.5204C105.887 13.9286 105.881 13.6327 106.177 13.6286C106.764 13.3246 106.776 13.9164 106.782 14.2123C107.097 15.0961 107.412 15.9798 107.436 17.1635C107.461 18.3472 108.072 19.2268 109.263 19.5066C109.263 19.5066 109.269 19.8025 109.559 19.5025L109.553 19.2066C109.535 18.3188 109.214 17.1392 109.195 16.2514C109.189 15.9555 108.881 15.3677 109.473 15.3595C110.066 15.3514 110.072 15.6474 110.084 16.2392C110.103 17.127 110.411 17.7148 110.43 18.6026C110.442 19.1944 110.454 19.7863 110.763 20.3741C112.269 21.5375 114.065 22.4009 115.867 23.5603C115.244 22.0888 114.917 20.6132 114.886 19.1336C114.88 18.8377 114.571 18.2499 115.164 18.2417C115.756 18.2336 115.762 18.5296 115.775 19.1214C116.102 20.597 116.422 21.7766 116.453 23.2563C116.472 24.144 116.78 24.7318 117.687 25.6074C117.348 23.54 117.305 21.4685 117.268 19.693C117.262 19.3971 116.657 18.8133 117.25 18.8052C117.842 18.7971 118.145 19.089 118.157 19.6808C118.194 21.4564 118.527 23.2279 118.564 25.0034C118.298 26.4871 119.193 26.7709 120.094 27.3505C120.397 27.6424 120.693 27.6384 120.983 27.3384L120.971 26.7465C120.638 24.975 120.002 22.9117 119.669 21.1402C119.657 20.5483 119.638 19.6605 119.626 19.0687C119.62 18.7728 119.91 18.4728 120.206 18.4687C120.799 18.4606 120.509 18.7606 120.521 19.3525C120.533 19.9443 120.539 20.2402 120.552 20.8321C120.891 22.8995 121.526 24.9629 121.86 26.7344C121.872 27.3262 121.884 27.9181 122.187 28.2099C123.082 28.4937 123.692 29.3734 124.581 29.3612C125.47 29.349 125.772 29.6409 126.081 30.2287C126.371 29.9287 126.365 29.6328 126.359 29.3369C126.328 27.8572 126.001 26.3817 125.97 24.902C125.958 24.3102 125.946 23.7183 126.835 23.7062C127.427 23.6981 127.143 24.294 127.155 24.8858L127.162 25.1817C127.198 26.9573 128.13 29.0166 127.278 30.8043C127.278 30.8043 126.988 31.1043 127.284 31.1002C128.179 31.384 128.204 32.5677 129.099 32.8515C129.994 33.1352 130.006 33.7271 129.432 34.623C130.623 34.9027 131.197 34.0068 132.08 33.6987C132.963 33.3906 133.247 32.7947 132.339 31.9191C132.346 32.215 132.346 32.215 132.346 32.215C132.352 32.5109 132.068 33.1068 131.771 33.1109C131.475 33.115 131.463 32.5231 131.457 32.2272C131.438 31.3394 131.71 30.1516 131.692 29.2639C131.685 28.9679 131.673 28.3761 132.266 28.368C132.858 28.3599 133.167 28.9477 132.877 29.2476C132.883 29.5436 132.593 29.8436 133.191 30.1314C133.753 28.6436 134.315 27.1559 134.877 25.6682C135.161 25.0723 135.445 24.4763 136.043 24.7642C137.241 25.3398 137.222 24.452 137.21 23.8602C137.494 23.2643 137.778 22.6684 138.364 22.3643C135.969 21.2131 133.581 20.3577 131.186 19.2065C129.396 18.6389 128.471 16.8756 126.681 16.308C122.793 14.5852 118.904 12.8624 115.01 10.8436C112.615 9.69236 109.924 8.54516 107.252 8.28573C105.468 8.01414 103.678 7.44662 101.876 6.28725C100.673 5.41569 99.1791 4.84412 97.6978 4.8644C96.809 4.87656 95.6116 4.30093 94.7167 4.01717C91.1308 2.58621 87.2856 2.93485 84.9832 6.22247C85.8658 5.91438 86.1805 6.7981 87.0754 7.08186L87.0693 6.78594C87.057 6.19409 87.0447 5.60224 87.6372 5.59413C88.2297 5.58601 87.9458 6.18192 88.2482 6.47379C87.9581 6.77377 88.2666 7.36157 88.5752 7.94936ZM112.039 39.0052C112.65 39.8848 112.964 40.7686 113.575 41.6482L113.872 41.6442C113.823 39.2768 113.773 36.9094 113.724 34.542C115.502 34.5176 114.051 36.0175 114.952 36.5972C115.532 35.9973 115.514 35.1095 116.107 35.1014C116.699 35.0933 116.693 34.7973 116.983 34.4974C117.255 33.3096 117.823 32.1178 118.1 31.226C118.391 30.926 118.082 30.3382 118.675 30.3301C119.273 30.6179 118.989 31.2138 118.995 31.5097C118.718 32.4015 118.143 33.2974 117.872 34.4852L117.878 34.7811L118.174 34.7771C118.767 34.769 118.754 34.1771 118.748 33.8812C119.02 32.6934 119.594 31.7975 119.872 30.9057C120.156 30.3098 120.736 29.7098 121.347 30.5895C121.353 30.8854 121.649 30.8814 121.643 30.5854C121.637 30.2895 121.927 29.9895 121.631 29.9936C121.335 29.9976 121.032 29.7058 121.032 29.7058C119.545 29.4301 118.348 28.8545 117.138 27.687C115.33 26.2317 113.811 24.4765 111.713 23.3211C109.615 22.1658 107.806 20.7105 105.714 19.8511C102.727 18.708 100.326 17.2608 97.9129 15.2218C96.7033 14.0543 95.2035 13.1868 93.7099 12.6152C90.7228 11.4721 88.0318 10.3249 85.6187 8.28584C84.4029 6.82243 82.6069 5.95899 80.5516 6.87515C79.9652 7.17919 79.3665 6.89137 78.774 6.89948C77.589 6.9157 76.4101 7.22785 75.5336 7.83187C73.4782 8.74803 72.0338 10.5439 70.287 12.0478C73.552 12.2991 76.2552 14.0382 78.9584 15.7772C78.329 14.0098 78.2983 12.5302 78.5638 11.0465C78.5577 10.7506 78.5454 10.1587 79.1379 10.1506C79.7304 10.1425 79.7427 10.7343 79.755 11.3262C79.7796 12.5099 79.8042 13.6936 79.8288 14.8773C79.5632 16.361 80.4766 17.5325 81.6739 18.1081C82.575 18.6878 83.7785 19.5594 84.9758 20.135C85.2782 20.4269 86.1793 21.0066 86.4633 20.4107C86.7534 20.1107 86.7411 19.5188 86.4325 18.931C86.4141 18.0433 86.3895 16.8596 86.3711 15.9718C86.3649 15.6759 86.3526 15.084 86.9451 15.0759C87.5377 15.0678 87.2537 15.6637 87.2598 15.9596C87.2721 16.5515 87.5868 17.4352 87.5991 18.027C87.6237 19.2107 87.6483 20.3944 87.0742 21.2903C87.6729 21.5781 88.2716 21.866 88.8764 22.4497C88.8579 21.5619 88.5494 20.9741 88.5371 20.3823C88.5187 19.4945 88.1978 18.3149 88.4756 17.423C88.4695 17.1271 88.7596 16.8271 89.0559 16.8231C89.3521 16.819 89.3583 17.1149 89.3644 17.4109C89.3951 18.8905 89.4259 20.3701 89.4566 21.8497C89.4689 22.4416 89.1727 22.4456 88.5863 22.7497C89.4812 23.0334 90.0922 23.9131 90.981 23.9009C91.2465 22.4173 90.6294 21.2417 90.5986 19.762C90.5925 19.4661 90.2839 18.8783 90.8764 18.8702C91.469 18.8621 91.4751 19.158 91.7837 19.7458C92.0984 20.6295 92.4192 21.8092 92.1475 22.9969C91.8759 24.1847 92.4807 24.7684 93.6719 25.0481C93.6411 23.5685 93.3141 22.0929 93.2834 20.6133C93.2773 20.3174 92.9687 19.7296 93.5612 19.7215C94.1537 19.7134 94.1599 20.0093 94.166 20.3052C94.1845 21.193 94.4992 22.0767 94.5176 22.9645C93.9681 25.0441 95.1778 26.2116 96.6714 26.7831C96.9676 26.7791 96.9738 27.075 96.9738 27.075C97.8748 27.6547 98.4797 28.2384 99.6647 28.2222C101.177 29.6816 102.985 31.1369 105.071 31.7003C106.268 32.2759 106.559 31.976 106.824 30.4923C106.806 29.6045 106.787 28.7167 106.769 27.829C106.763 27.533 107.047 26.9371 107.343 26.9331C107.935 26.925 107.948 27.5168 107.954 27.8127C107.978 28.9964 108.003 30.1801 107.429 31.076C106.571 32.5678 107.478 33.4434 108.379 34.0231C109.286 34.8987 109.897 35.7784 110.502 36.3621C111.119 37.5377 111.434 38.4214 112.039 39.0052ZM55.6953 22.9039C55.7014 23.1998 55.7014 23.1998 55.9977 23.1958C58.3862 24.0511 60.2007 25.8023 62.3052 27.2535C64.4098 28.7048 66.2242 30.456 68.0325 31.9113C68.9397 32.7869 70.4272 33.0626 71.3344 33.9382C73.1427 35.3935 74.6486 36.5569 76.747 37.7122C77.3457 38 77.9443 38.2878 78.543 38.5756C81.2462 40.3147 83.9433 41.7578 86.9366 43.1969C90.5286 44.9238 94.707 46.3466 96.8608 50.1653C97.1632 50.4571 97.4717 51.0449 98.0581 50.7409C98.6445 50.4369 98.6568 51.0287 98.3728 51.6246C97.7987 52.5205 97.5332 54.0042 96.9591 54.9001C96.385 55.796 97.5762 56.0757 97.5885 56.6675C97.5947 56.9634 98.4896 57.2472 98.7797 56.9472C100.249 56.3351 101.718 55.723 102.273 53.9393C100.187 53.3758 100.187 53.3758 99.3353 55.1636C99.3415 55.4595 99.0452 55.4635 99.0514 55.7595C98.7613 56.0594 98.7674 56.3554 98.1749 56.3635C97.5762 56.0757 97.8663 55.7757 98.1565 55.4757C99.0268 54.5758 98.1011 52.8124 99.2677 51.9084C98.953 51.0247 98.9346 50.1369 99.2124 49.2451C99.2063 48.9491 99.2001 48.6532 98.9038 48.6573C98.3113 48.6654 98.3052 48.3694 98.299 48.0735C98.2744 46.8898 98.2499 45.7061 98.2253 44.5224C98.2191 44.2265 97.9106 43.6387 98.5031 43.6306C99.0956 43.6225 99.1079 44.2143 99.114 44.5103C99.1325 45.398 99.1509 46.2858 99.4718 47.4655C100.046 46.5696 100.33 45.9737 100.608 45.0818C100.898 44.7818 100.892 44.4859 101.484 44.4778C102.083 44.7656 102.077 44.4697 102.367 44.1697C102.651 43.5738 102.929 42.682 103.509 42.082C103.799 41.782 104.083 41.1861 104.385 41.478C105.28 41.7618 105.564 41.1659 105.848 40.57C106.138 40.27 106.428 39.97 106.731 40.2619C107.033 40.5537 106.743 40.8537 106.749 41.1496C106.175 42.0455 105.601 42.9414 105.323 43.8332C105.916 43.8251 106.2 43.2292 106.194 42.9333C106.768 42.0374 107.045 41.1456 107.613 39.9538C107.903 39.6538 107.891 39.0619 108.484 39.0538C109.076 39.0457 108.496 39.6457 108.798 39.9376C109.089 39.6376 109.372 39.0417 109.663 38.7417C109.953 38.4417 109.947 38.1458 109.644 37.8539C108.731 36.6824 107.515 35.219 106.602 34.0474C106.33 35.2352 105.744 35.5392 105.731 34.9474C105.404 33.4718 103.917 33.1962 103.016 32.6165C99.1029 29.7099 95.2024 27.3953 91.0055 25.0846C88.5986 23.3415 85.9015 21.8984 83.2044 20.4553C80.8036 19.0081 78.3905 16.969 75.9897 15.5219C72.0891 13.2072 68.2132 12.0762 63.7693 12.137C61.1029 12.1735 59.0537 13.3856 56.7082 14.6018C55.8317 15.2058 55.2515 15.8057 54.3689 16.1138C53.1961 16.7219 52.0111 16.7381 51.4493 18.2259C51.4554 18.5218 50.8629 18.5299 50.2765 18.8339C49.9864 19.1339 49.0977 19.1461 48.2089 19.1582C49.4062 19.7339 50.011 20.3176 50.9059 20.6014C52.4057 21.4689 53.9054 22.3364 55.6953 22.9039ZM31.1918 27.3834C31.1979 27.6793 31.1979 27.6793 31.1918 27.3834C31.4942 27.6753 31.488 27.3794 31.1918 27.3834C31.1733 26.4956 31.1549 25.6079 31.1365 24.7201C31.1303 24.4242 31.1119 23.5364 31.7044 23.5283C32.2969 23.5202 32.3092 24.112 32.3215 24.7039C32.3461 25.8876 32.6731 27.3631 32.9939 28.5428C32.9755 27.655 32.9632 27.0632 32.9448 26.1754C32.9386 25.8795 33.2287 25.5795 33.525 25.5754C33.8212 25.5714 33.8274 25.8673 33.8335 26.1632C33.852 27.051 34.1605 27.6388 34.179 28.5266C34.2097 30.0062 34.2097 30.0062 35.691 29.9859C35.0678 28.5144 34.7408 27.0388 35.0063 25.5552C35.0001 25.2592 34.994 24.9633 35.2902 24.9592C35.5865 24.9552 35.8889 25.2471 35.8951 25.543C35.9074 26.1348 35.9258 27.0226 36.2344 27.6104C36.5491 28.4941 36.5736 29.6778 37.1846 30.5575C37.1785 30.2616 37.1723 29.9656 37.1662 29.6697C37.1539 29.0779 36.2405 27.9063 37.1231 27.5982C38.0119 27.5861 37.7402 28.7738 38.0549 29.6575C38.3696 30.5413 38.0734 30.5453 39.2646 30.825C38.6475 29.6494 39.2154 28.4576 38.8945 27.278C38.8822 26.6861 38.5798 26.3943 39.1724 26.3862C39.7649 26.378 40.0673 26.6699 40.0796 27.2618C40.1042 28.4455 40.1226 29.3332 40.4435 30.5129C40.4619 31.4007 40.4803 32.2884 41.6715 32.5681C41.6715 32.5681 41.6715 32.5681 41.9739 32.86L41.9678 32.5641C41.9494 31.6763 41.6408 31.0885 41.6224 30.2007C41.6162 29.9048 41.6101 29.6089 42.2026 29.6008C42.7951 29.5927 42.505 29.8926 42.8074 30.1845C42.8258 31.0723 43.1344 31.6601 43.1528 32.5479C43.1713 33.4356 43.4737 33.7275 44.0724 34.0153C44.0539 33.1275 43.4429 32.2479 43.7146 31.0601C43.7085 30.7642 43.6962 30.1723 44.2887 30.1642C44.8812 30.1561 44.8935 30.748 44.8997 31.0439C44.9242 32.2276 45.5414 33.4032 45.5659 34.5869C45.5782 35.1787 45.8868 35.7665 46.7756 35.7544C46.7571 34.8666 46.4424 33.9829 46.424 33.0951C46.4178 32.7992 46.4117 32.5033 46.7018 32.2033C47.2882 31.8992 47.3005 32.4911 47.6029 32.783C47.6213 33.6707 47.9299 34.2585 47.9483 35.1463C47.9729 36.33 48.2938 37.5097 49.7812 37.7853C49.7566 36.6016 49.4419 35.7179 49.4173 34.5342C49.4112 34.2383 49.405 33.9423 49.9975 33.9342C50.2938 33.9302 50.5962 34.222 50.6024 34.518C50.6147 35.1098 50.6331 35.9976 50.9417 36.5854C51.2687 38.0609 51.5895 39.2406 52.793 40.1121L53.0892 40.1081L53.0831 39.8122C52.7622 38.6325 52.4475 37.7488 52.423 36.5651C52.4168 36.2692 52.1144 35.9773 52.4045 35.6773C52.9909 35.3733 53.2933 35.6652 53.3056 36.257C53.6203 37.1407 53.6387 38.0285 53.9473 38.6163C54.5582 39.496 53.9965 40.9837 55.4901 41.5553C55.4962 41.8512 55.7925 41.8471 56.0887 41.8431C56.3788 41.5431 56.0826 41.5472 55.7802 41.2553C55.1631 40.0797 54.5398 38.6082 54.5091 37.1286C54.4968 36.5367 54.4845 35.9449 55.3733 35.9327C55.9658 35.9246 55.6818 36.5205 55.6941 37.1123C55.731 38.8879 56.3604 40.6553 57.5762 42.1187C57.5577 41.231 57.5454 40.6391 57.2307 39.7554C57.2246 39.4595 57.2123 38.8676 57.8048 38.8595C58.3973 38.8514 58.1072 39.1514 58.4096 39.4432C58.4219 40.0351 58.7243 40.327 58.7366 40.9188C59.0636 42.3944 58.8042 44.174 60.304 45.0415C60.304 45.0415 60.3101 45.3374 60.6064 45.3334L60.6003 45.0374C60.2794 43.8578 59.9585 42.6782 59.6377 41.4985C59.6315 41.2026 59.6193 40.6107 60.2056 40.3067C60.792 40.0027 60.5142 40.8945 60.8104 40.8904C61.4153 41.4742 61.4337 42.3619 61.4521 43.2497C61.7668 44.1334 61.7914 45.3171 62.6925 45.8968C62.6864 45.6009 62.6741 45.009 62.6679 44.7131C62.3655 44.4213 62.3594 44.1253 62.6556 44.1213C62.9519 44.1172 63.2481 44.1132 63.5506 44.405C63.853 44.6969 63.8591 44.9928 63.8653 45.2888C64.1861 46.4684 64.2168 47.948 65.4265 49.1155C65.4265 49.1155 65.4265 49.1155 65.4326 49.4114C65.4326 49.4114 65.4326 49.4114 65.4265 49.1155C65.4265 49.1155 65.4265 49.1155 65.1302 49.1196C65.4142 48.5237 65.1118 48.2318 65.1056 47.9359C64.7909 47.0521 64.4762 46.1684 64.754 45.2766C64.7479 44.9807 64.4393 44.3929 65.0319 44.3848C65.6244 44.3766 65.6305 44.6726 65.9391 45.2604C66.2599 46.44 66.8832 47.9115 67.204 49.0912C67.5187 49.9749 67.8273 50.5627 68.426 50.8505C68.7099 50.2546 68.1113 49.9668 68.1051 49.6709C68.099 49.3749 68.0928 49.079 68.3891 49.075C68.6853 49.0709 68.6915 49.3668 68.9939 49.6587C69.3086 50.5424 69.6294 51.7221 69.9441 52.6058C70.265 53.7854 70.8698 54.3692 72.061 54.6489C71.4377 53.1774 69.6356 52.018 70.4813 49.9343C70.4752 49.6384 70.1666 49.0506 71.0554 49.0385C71.6479 49.0303 71.6602 49.6222 71.6664 49.9181C71.4008 51.4018 72.0118 52.2815 72.6289 53.4571C73.2399 54.3367 73.8508 55.2164 73.8754 56.4001C73.8816 56.696 74.184 56.9879 74.4802 56.9838C74.4557 55.8001 74.141 54.9164 73.8201 53.7368C73.814 53.4408 73.5116 53.149 73.8017 52.849C74.0979 52.8449 74.3942 52.8409 74.6966 53.1327C75.0113 54.0165 75.6161 54.6002 75.9308 55.4839C75.9615 56.9635 76.5787 58.1391 77.7821 59.0107C78.0845 59.3026 77.5105 60.1984 78.6955 60.1822C78.6648 58.7026 78.634 57.223 78.307 55.7474C78.2947 55.1556 78.2824 54.5637 78.875 54.5556C79.4613 54.2516 79.1835 55.1434 79.4859 55.4353C80.4177 57.4946 79.8806 60.166 81.9913 61.9132C81.9913 61.9132 81.9974 62.2091 82.0035 62.505C82.0097 62.8009 81.7134 62.805 81.4172 62.8091C80.8185 62.5212 79.9297 62.5334 79.3311 62.2456C78.146 62.2618 76.9487 61.6862 76.0353 60.5147C74.2147 58.4675 72.104 56.7203 69.9995 55.2691C66.9938 53.2382 64.2722 50.6114 61.2604 48.2845C59.1558 46.8333 57.3291 44.4902 54.9344 43.3389C53.4408 42.7674 52.2312 41.5999 51.0277 40.7283C47.4234 38.4096 44.1031 35.4949 40.2087 33.4762C39.61 33.1884 39.0113 32.9006 38.7151 32.9046C37.2276 32.629 35.7402 32.3533 34.5367 31.4818C32.1297 29.7387 29.1364 28.2996 26.4393 26.8565C24.3348 25.4052 23.1497 25.4214 21.9647 25.4377C18.3973 24.8945 15.1446 25.235 11.6079 26.1714C9.25011 26.7957 6.89232 27.42 5.16394 29.8118C4.58987 30.7076 4.00964 31.3076 3.43557 32.2035C1.985 33.7034 2.00345 34.5912 2.93526 36.6505C3.21922 36.0546 2.91067 35.4668 3.19463 34.8709C2.89223 34.579 3.17619 33.9831 3.4786 34.275C3.781 34.5668 3.78715 34.8628 3.7933 35.1587C3.52778 36.6424 3.55851 38.122 3.58925 39.6016C3.61999 41.0812 4.53336 42.2528 5.44673 43.4243C5.42214 42.2406 5.11358 41.6528 4.79888 40.7691C3.86092 38.4139 4.41656 36.6302 5.55856 34.5425C5.84868 34.2425 5.84253 33.9466 6.4412 34.2344C7.03986 34.5222 6.74975 34.8222 6.45964 35.1222C5.89171 36.314 6.50882 37.4896 6.53956 38.9692C6.5457 39.2651 6.85426 39.8529 6.86041 40.1489C7.20585 42.5122 8.13766 44.5715 10.5262 45.4269C10.5262 45.4269 10.8286 45.7187 10.8224 45.4228C10.8224 45.4228 10.8224 45.4228 10.52 45.1309C9.60666 43.9594 8.98341 42.4879 8.65641 41.0123C8.32941 39.5367 7.70001 37.7693 8.55805 36.2775C8.84816 35.9775 8.83587 35.3857 9.43453 35.6735C9.73694 35.9654 9.74309 36.2613 9.45298 36.5613C8.92808 39.8246 9.87218 42.4757 11.9952 44.8147C12.6061 45.6944 12.3099 45.6984 11.4273 46.0065C12.316 45.9944 12.6246 46.5822 13.5134 46.57C13.2048 45.9822 12.9024 45.6903 12.8901 45.0985C12.2669 43.627 11.6436 42.1555 12.2054 40.6677C12.1992 40.3718 12.1808 39.484 12.7795 39.7718C13.372 39.7637 13.088 40.3596 13.1003 40.9515C13.1433 43.023 13.7727 44.7904 14.9947 46.5497C14.9578 44.7742 14.6246 43.0027 14.2915 41.2312C14.2853 40.9353 14.2731 40.3434 14.5693 40.3393C15.1618 40.3312 15.1741 40.9231 15.1803 41.219C15.5134 42.9905 15.8466 44.762 16.1797 46.5335C16.5006 47.7131 16.8153 48.5969 18.2966 48.5766C16.7722 46.5254 16.4268 44.162 15.7851 41.8028C15.4642 40.6231 16.0445 40.0232 16.6185 39.1273C16.9087 38.8273 17.1988 38.5273 17.5012 38.8192C17.8036 39.111 17.8097 39.407 17.5196 39.7069C17.2356 40.3029 16.9455 40.6028 17.2541 41.1906C17.6303 45.0336 18.5867 48.2766 21.9009 50.8953C21.8886 50.3035 21.8824 50.0076 21.8763 49.7116C21.2284 47.0564 21.7718 44.6809 22.9076 42.2973C23.1977 41.9973 23.1916 41.7014 23.7841 41.6933C24.0865 41.9851 24.0927 42.2811 23.8025 42.581C23.8148 43.1729 23.5247 43.4729 23.2408 44.0688C22.395 46.1524 22.438 48.2239 23.0736 50.2873C23.3883 51.171 23.4006 51.7628 23.7153 52.6465C23.7337 53.5343 24.0362 53.8262 24.9311 54.11C24.9249 53.814 24.9249 53.814 24.9188 53.5181C24.5918 52.0425 24.5549 50.267 24.5242 48.7874C24.5119 48.1955 24.802 47.8955 25.0982 47.8915C25.6908 47.8834 25.7031 48.4752 25.7092 48.7711C25.7215 49.363 25.7338 49.9548 25.7461 50.5467C25.783 52.3222 25.8137 53.8019 26.7394 55.5652C26.7332 55.2693 26.7332 55.2693 26.7271 54.9734C25.7768 52.0263 27.2028 49.3427 27.74 46.6713C27.7338 46.3753 28.0178 45.7794 28.3202 46.0713C28.9127 46.0632 28.6288 46.6591 28.6349 46.955C28.6595 48.1387 28.3878 49.3265 27.8199 50.5183C26.6963 53.4938 28.233 56.1368 29.4733 58.7839C29.4549 57.8961 29.1402 57.0124 29.1279 56.4206C28.7948 54.6491 29.0541 52.8695 29.0172 51.0939C29.0049 50.5021 29.2889 49.9062 29.8814 49.8981C30.7702 49.8859 30.1961 50.7818 30.2023 51.0777C29.6712 54.0451 30.3252 56.9962 30.9792 59.9473C30.9854 60.2433 30.9977 60.8351 31.5963 61.1229C31.5779 60.2352 31.2632 59.3514 30.9485 58.4677C30.0044 55.8166 30.2453 53.1492 30.7887 50.7737C31.0726 50.1778 31.0542 49.29 31.6528 49.5778C32.5478 49.8616 31.9737 50.7574 31.986 51.3493C31.4426 53.7248 31.4918 56.0922 32.1335 58.4515C32.4544 59.6312 33.664 60.7986 32.5097 62.2945L32.8121 62.5863C33.4169 63.1701 34.0217 63.7538 34.9228 64.3335C34.9167 64.0376 34.9167 64.0376 34.9105 63.7417C33.6763 61.3905 33.9172 58.7231 33.8619 56.0598C33.8496 55.4679 34.1336 54.872 34.4237 54.572C34.4175 54.2761 34.7077 53.9761 35.0101 54.268C35.3063 54.2639 35.3125 54.5599 35.3186 54.8558C35.0408 55.7476 35.0531 56.3395 35.0715 57.2272C35.1207 59.5946 35.1637 61.6661 35.7993 63.7295C36.1079 64.3173 36.1202 64.9091 36.725 65.4929C39.1319 67.236 42.1068 67.7873 44.5138 69.5304C45.1125 69.8182 45.421 70.406 46.3098 70.3938C45.9951 69.5101 45.6804 68.6264 45.3718 68.0386C44.4523 66.5711 44.1192 64.7996 44.0823 63.0241C44.07 62.4322 44.0638 62.1363 44.6564 62.1282C45.2489 62.1201 44.9649 62.716 45.2673 63.0079C45.6066 65.0753 46.236 66.8427 46.8654 68.6102C47.174 69.198 48.0812 70.0736 47.2109 70.9735C46.9208 71.2735 47.217 71.2694 47.217 71.2694C48.7168 72.1369 50.2165 73.0045 51.9941 72.9801C50.4636 70.633 50.1181 68.2696 50.0628 65.6063C50.0567 65.3104 50.0444 64.7185 50.6369 64.7104C50.9331 64.7064 51.2355 64.9982 51.2478 65.5901C51.2601 66.1819 51.2724 66.7738 51.2847 67.3656C51.3278 69.4371 52.2596 71.4964 53.4815 73.2558C54.0925 74.1354 55.5676 73.8192 56.4687 74.3989C56.765 74.3949 56.7649 74.3948 57.0674 74.6867C57.0674 74.6867 57.0735 74.9826 57.3636 74.6827L57.3575 74.3867C55.8331 72.3355 55.1976 70.2722 55.1423 67.6089C55.13 67.017 54.519 66.1373 55.4078 66.1252C56.0003 66.1171 56.0187 67.0048 56.031 67.5967C56.3765 69.96 57.0182 72.3193 58.5425 74.3705C58.8449 74.6624 58.561 75.2583 59.1596 75.5461C61.258 76.7014 63.6527 77.8527 66.0228 77.8202C66.6153 77.8121 66.9054 77.5122 66.8931 76.9203C67.1525 75.1407 67.7081 73.357 68.2638 71.5734C68.5354 70.3856 69.1095 69.4897 69.6774 68.2979C69.9676 67.9979 70.2577 67.698 70.5601 67.9898C71.1587 68.2776 70.5724 68.5817 70.5785 68.8776C69.9983 69.4776 69.7205 70.3694 69.4488 71.5571C70.3314 71.2491 70.9117 70.6491 71.1956 70.0532C71.7574 68.5655 72.6216 67.3696 73.1895 66.1778C73.4796 65.8778 73.7636 65.2819 74.066 65.5738C74.3684 65.8656 74.3684 65.8656 74.6585 65.5656C74.9486 65.2657 74.9363 64.6738 75.5289 64.6657C75.819 64.3657 76.1152 64.3617 76.4176 64.6535C76.72 64.9454 76.4299 65.2454 76.1398 65.5454C75.2572 65.8535 75.2756 66.7412 74.9917 67.3371C74.9978 67.6331 74.4114 67.9371 75.0101 68.2249C75.3064 68.2209 76.2013 68.5046 76.189 67.9128C76.1829 67.6169 76.1706 67.025 76.4607 66.725C76.7385 65.8332 76.7201 64.9454 77.3003 64.3455C77.5842 63.7495 77.8805 63.7455 78.4792 64.0333C78.7816 64.3252 79.084 64.6171 78.7939 64.917C77.3249 65.5292 77.658 67.3007 77.0901 68.4925C78.2751 68.4762 79.4663 68.756 80.3612 69.0397C80.9599 69.3275 81.25 69.0275 81.5463 69.0235C83.0153 68.4114 83.0153 68.4114 83.5648 66.3318C82.9722 66.3399 82.9845 66.9317 82.7006 67.5276C82.4105 67.8276 82.4228 68.4195 82.1203 68.1276C81.5217 67.8398 81.8118 67.5398 82.1019 67.2398C82.3859 66.6439 82.6637 65.7521 82.0589 65.1683C82.0589 65.1683 82.0527 64.8724 82.0466 64.5765C82.6207 63.6806 82.306 62.7969 82.5838 61.9051C82.8554 60.7173 83.1271 59.5295 83.695 58.3377C83.9852 58.0378 84.2691 57.4419 84.8678 57.7297C85.4664 58.0175 85.1763 58.3175 84.8924 58.9134C84.2999 58.9215 84.0282 60.1092 84.0651 61.8848C84.6453 61.2848 85.2317 60.9808 85.2132 60.093C85.1886 58.9093 85.4603 57.7216 86.0282 56.5297C86.3122 55.9338 86.2815 54.4542 87.7751 55.0258C87.7751 55.0258 88.0652 54.7258 88.059 54.4299C88.3491 54.1299 88.3368 53.5381 88.627 53.2381C88.9171 52.9381 88.9048 52.3462 89.5034 52.6341C90.096 52.6259 89.812 53.2218 89.8181 53.5178C89.5219 53.5218 89.528 53.8178 89.5342 54.1137C89.8366 54.4056 89.8243 53.8137 89.8243 53.8137C90.1144 53.5137 90.3984 52.9178 90.6885 52.6178C90.9786 52.3179 91.2626 51.7219 91.565 52.0138C92.1636 52.3016 91.5834 52.9016 91.2933 53.2016C90.7192 54.0975 90.1513 55.2893 89.8735 56.1811C91.3548 56.1608 91.0585 56.1649 91.6264 54.9731C92.1944 53.7813 92.7561 52.2935 93.3241 51.1017C93.6142 50.8017 93.8982 50.2058 94.2006 50.4977C94.7992 50.7855 94.219 51.3855 93.9289 51.6855C93.0647 52.8813 92.4968 54.0731 92.2251 55.2609C92.5214 55.2568 92.8176 55.2528 92.8115 54.9568C93.6757 53.761 93.935 51.9814 94.8054 51.0814L94.7992 50.7855C93.892 49.9099 93.5712 48.7303 92.3738 48.1546C87.8684 45.2562 82.7952 43.5496 78.2898 40.6512C75.889 39.204 73.2042 38.3527 71.3836 36.3056C70.7788 35.7218 70.174 35.1381 69.279 34.8543C67.483 33.9909 65.9771 32.8275 64.4712 31.664C62.6568 29.9128 60.8547 28.7534 58.7501 27.3022C55.7445 25.2713 52.745 23.5363 49.4492 21.8053C46.1535 20.0744 42.5676 18.6434 38.7286 19.288C35.4758 19.6285 32.5501 21.4446 29.6121 22.6689C28.4455 23.5729 28.1616 24.1688 29.3896 26.224C29.7043 27.1078 30.5931 27.0956 31.1918 27.3834ZM108.395 63.3278C107.494 62.7481 106.883 61.8685 105.988 61.5847C103.6 60.7294 101.205 59.5781 98.8166 58.7228C96.7243 57.8634 94.9222 56.704 92.2681 57.3324C90.5029 57.9485 89.0277 58.2647 87.8673 59.4647C86.7068 60.6646 86.1512 62.4483 84.6883 63.3563C85.8857 63.9319 87.083 64.5076 87.6878 65.0913C89.8047 67.1344 92.4894 67.9857 94.8964 69.7288C95.5012 70.3125 96.39 70.3003 96.9825 70.2922C97.575 70.2841 97.2603 69.4004 97.5505 69.1004C98.9641 65.825 101.001 64.021 104.55 63.6764C105.735 63.6602 106.926 63.9399 108.395 63.3278ZM101.348 52.1759C102.236 52.1638 103.131 52.4475 104.02 52.4353C106.699 52.9907 108.81 54.7379 111.21 56.185C111.513 56.4769 111.815 56.7688 112.099 56.1729C114.111 53.1852 116.124 50.1976 119.951 48.9612C119.352 48.6734 118.759 48.6815 118.457 48.3896C116.062 47.2384 114.248 45.4871 111.569 44.9318C108.292 44.0886 104.768 45.6169 102.749 48.3086C101.885 49.5045 101.916 50.9841 101.348 52.1759ZM134.561 38.9929C133.956 38.4092 133.357 38.1213 132.759 37.8335C130.963 36.9701 129.469 36.3985 127.679 35.831C126.186 35.2594 124.704 35.2797 123.223 35.3C120.853 35.3324 118.797 36.2486 117.365 38.6363C116.507 40.128 117.137 41.8955 118.927 42.463C121.309 43.0224 123.691 43.5818 125.79 44.7371C126.691 45.3168 127.277 45.0128 127.851 44.1169C129.265 40.8414 130.993 38.4497 134.561 38.9929ZM150.411 31.6717C149.813 31.3839 149.51 31.092 148.918 31.1001C148.023 30.8164 147.128 30.5326 146.221 29.657C145.313 28.7814 144.104 27.6139 142.332 27.9342C142.036 27.9382 141.74 27.9423 141.437 27.6504C138.753 26.7991 135.222 28.0315 133.79 30.4192C133.796 30.7151 133.5 30.7192 133.802 31.011C133.802 31.011 134.111 31.5988 134.098 31.007C134.092 30.711 134.08 30.1192 134.395 31.0029C134.703 31.5907 135.012 32.1785 135.611 32.4663C136.814 33.3379 138.301 33.6135 139.795 34.1851C140.69 34.4689 141.282 34.4607 141.857 33.5649C142.141 32.969 143.023 32.6609 143.616 32.6528C145.986 32.6203 148.053 32.296 150.411 31.6717ZM92.3838 77.1634C90.0198 77.4918 88.2669 78.6998 86.52 80.2038C85.6436 80.8078 85.0756 81.9996 85.1002 83.1833C85.1371 84.9588 85.7358 85.2467 87.2109 84.9305C90.4513 83.9981 92.1859 81.9023 93.6057 78.9227C94.4576 77.135 94.1613 77.1391 92.3838 77.1634ZM113.599 57.0404C114.506 57.916 115.395 57.9038 116.271 57.2998C117.74 56.6877 118.913 56.0796 120.086 55.4715C121.549 54.5635 122.11 53.0758 122.37 51.2962C122.351 50.4084 122.055 50.4124 121.463 50.4205C118.204 50.4651 116.482 53.1528 114.747 55.2486C114.167 55.8486 114.481 56.7323 113.599 57.0404ZM108.438 65.3993C106.957 65.4196 106.068 65.4317 105.179 65.4439C102.513 65.4804 100.464 66.6925 99.3342 69.372C99.0441 69.672 98.7601 70.2679 99.3588 70.5557C99.6612 70.8476 100.26 71.1354 100.846 70.8314C103.488 69.6112 105.821 67.8032 108.438 65.3993ZM129.339 44.3925C131.122 44.6641 133.462 43.1521 134.314 41.3644C134.598 40.7684 134.295 40.4766 133.697 40.1888C131.623 40.2172 129.296 42.3211 129.339 44.3925ZM110.267 39.3254C109.699 40.5172 109.422 41.4091 108.854 42.6009C109.749 42.8846 110.637 42.8725 111.236 43.1603C112.131 43.444 112.421 43.1441 112.106 42.2603C111.792 41.3766 111.181 40.497 110.267 39.3254ZM148.09 34.0716C146.609 34.0918 145.134 34.408 143.961 35.0161C143.671 35.3161 143.078 35.3242 143.387 35.912C143.393 36.2079 143.992 36.4957 144.288 36.4917C144.881 36.4836 145.473 36.4755 146.053 35.8755C146.337 35.2796 147.214 34.6756 148.09 34.0716ZM94.5952 55.2284C96.6751 55.496 96.342 53.7245 96.9161 52.8286C97.2062 52.5286 96.9038 52.2367 96.6014 51.9449C96.299 51.653 96.0089 51.953 96.015 52.2489C95.4409 53.1448 95.1693 54.3326 94.5952 55.2284ZM113.915 43.7156C115.729 45.4669 115.976 43.0954 116.859 42.7873C115.662 42.2117 114.804 43.7035 113.915 43.7156ZM121.989 32.9488C122.575 32.6448 123.186 33.5244 123.168 32.6366C123.155 32.0448 123.439 31.4489 123.433 31.153C123.427 30.857 123.717 30.5571 123.421 30.5611C123.118 30.2692 122.828 30.5692 122.834 30.8651C122.557 31.757 122.273 32.3529 121.989 32.9488ZM123.772 33.2204C124.069 33.2163 124.365 33.2123 124.661 33.2082C125.254 33.2001 125.241 32.6083 125.229 32.0164C125.223 31.7205 124.921 31.4286 124.624 31.4327C124.032 31.4408 124.038 31.7367 124.044 32.0326C124.346 32.3245 124.056 32.6245 123.772 33.2204ZM108.514 40.5335C108.237 41.4253 107.663 42.3212 107.385 43.213L107.681 43.209C107.959 42.3171 108.533 41.4212 108.514 40.5335ZM72.9486 68.8452C74.1213 68.2371 74.1029 67.3493 74.0844 66.4615C73.8066 67.3534 73.5227 67.9493 72.9486 68.8452ZM74.3684 65.8656C74.3684 65.8656 74.3746 66.1616 74.3684 65.8656C74.3746 66.1616 74.3746 66.1616 74.3746 66.1616C74.3746 66.1616 74.3746 66.1616 74.3684 65.8656C74.6708 66.1575 74.3746 66.1616 74.3684 65.8656ZM91.5685 9.38843C91.5685 9.38843 91.5746 9.68436 91.5685 9.38843C91.5746 9.68436 91.5746 9.68436 91.5685 9.38843C91.5746 9.68436 91.5685 9.38843 91.5685 9.38843ZM15.5872 46.5416C15.5872 46.5416 15.2971 46.8416 15.5872 46.5416C15.2971 46.8416 15.5933 46.8375 15.5872 46.5416C15.5933 46.8375 15.5933 46.8375 15.5872 46.5416C15.5933 46.8375 15.5933 46.8375 15.5872 46.5416ZM47.1801 69.4939C47.1801 69.4939 46.8777 69.202 47.1801 69.4939C46.8777 69.202 46.8839 69.4979 47.1801 69.4939C46.8839 69.4979 46.8839 69.4979 47.1801 69.4939Z" fill="#040404"/>
<path d="M110.178 39.581C110.787 40.457 111.694 41.328 112.012 42.5043C112.325 43.3852 112.032 43.6855 111.135 43.4051C110.239 43.1247 109.644 43.1347 108.747 42.8543C109.326 41.9584 109.603 40.7722 110.178 39.581Z" fill="#040404"/>
<path d="M138.744 26.132C139.025 25.2409 139.608 24.6407 139.889 23.7497C140.493 24.3312 141.681 24.3126 141.108 25.5037C141.114 25.7992 141.411 25.7945 141.411 25.7945C141.999 25.4897 142.302 25.7805 142.015 26.3761C141.729 26.9717 141.432 26.9764 141.13 26.6856C140.531 26.3994 139.932 26.1133 138.744 26.132C139.041 26.1273 138.744 26.132 138.744 26.132Z" fill="#040404"/>
<path d="M94.3696 55.3391C94.95 54.4429 95.2281 53.2568 95.8086 52.3607C95.8037 52.0654 96.0964 51.765 96.3988 52.055C96.7012 52.3451 96.9987 52.3399 96.7109 52.9356C96.1304 53.8317 96.4572 55.5979 94.3696 55.3391Z" fill="#040404"/>
<path d="M113.768 43.9964C114.947 43.684 115.51 42.1965 116.713 43.0674C115.83 43.3757 115.582 45.7464 113.768 43.9964Z" fill="#040404"/>
<path d="M121.97 33.316C122.259 32.7204 122.542 31.8297 122.831 31.2341C122.826 30.939 123.12 30.6385 123.422 30.9282C123.72 30.9227 123.725 31.2178 123.432 31.5183C123.441 32.1085 123.152 32.7041 123.157 32.9992C123.171 33.8845 122.268 33.3105 121.97 33.316Z" fill="#040404"/>
<path d="M121.656 31.5283C121.666 32.1185 121.377 32.7141 121.382 33.0092C121.396 33.8944 120.8 33.9053 120.204 33.9162C120.488 33.0255 120.474 32.1403 121.656 31.5283C121.359 31.5338 121.656 31.5283 121.656 31.5283Z" fill="#040404"/>
<path d="M123.741 33.5988C124.033 33.2987 124.028 33.0034 124.32 32.7034C124.612 32.4033 124.304 31.8176 124.904 32.1032C125.201 32.0984 125.503 32.3888 125.509 32.6841C125.514 32.9794 125.524 33.5699 124.935 33.8748C124.633 33.5843 124.335 33.5891 123.741 33.5988Z" fill="#040404"/>
<path d="M108.434 40.7638C108.451 41.9439 107.862 42.5459 107.576 43.4369L107.277 43.4429C107.559 42.2569 107.849 41.6609 108.434 40.7638Z" fill="#040404"/>
<path d="M72.6103 68.7529C73.194 67.8562 73.4837 67.2604 73.7689 66.3695C73.7821 67.2546 73.7952 68.1396 72.6103 68.7529Z" fill="#040404"/>
<path d="M89.0437 54.7622C89.0563 55.6472 88.766 56.2433 88.1769 56.8455C88.463 55.9544 88.4505 55.0693 89.0437 54.7622Z" fill="#040404"/>
<path d="M55.6023 41.1094C55.6078 41.4044 56.2024 41.3953 55.9106 41.6948C55.9106 41.6948 55.6132 41.6994 55.3105 41.409C55.6078 41.4044 55.6078 41.4044 55.6023 41.1094Z" fill="#040404"/>
<path d="M89.0489 54.7681C88.7457 54.4788 89.0443 54.4733 89.0397 54.1785C89.3429 54.4677 89.3429 54.4677 89.0489 54.7681Z" fill="#040404"/>
<path d="M89.6287 53.582C89.6287 53.582 89.6378 54.1719 89.3355 53.8825C89.3309 53.5875 89.3309 53.5875 89.6287 53.582C89.6241 53.287 89.6287 53.582 89.6287 53.582Z" fill="#040404"/>
<path d="M74.0614 65.7859C74.0657 66.0803 74.3667 66.0743 74.0614 65.7859C74.0657 66.0803 74.0657 66.0803 74.0657 66.0803C74.0657 66.0803 74.0657 66.0803 74.0614 65.7859C74.0657 66.0803 74.0614 65.7859 74.0614 65.7859Z" fill="#040404"/>
<path d="M31.9024 27.0923C31.9024 27.0923 31.9077 27.3882 31.9024 27.0923C31.6116 27.3929 31.6116 27.3929 31.9024 27.0923C31.6064 27.097 31.6064 27.097 31.9024 27.0923Z" fill="#040404"/>
<path d="M42.5638 32.3373L42.568 32.6317C42.568 32.6317 42.2669 32.6378 42.5638 32.3373C42.2627 32.3433 42.5638 32.3373 42.5638 32.3373Z" fill="#040404"/>
<path d="M60.3498 44.9151L60.3543 45.2112C60.0634 45.513 60.0589 45.2169 60.3498 44.9151C60.0589 45.2169 60.3498 44.9151 60.3498 44.9151Z" fill="#040404"/>
<path d="M121.366 31.5408C121.36 31.2449 121.36 31.2449 121.366 31.5408C121.657 31.2401 121.662 31.5361 121.366 31.5408C121.662 31.5361 121.366 31.5408 121.366 31.5408Z" fill="#040404"/>
<path d="M89.3342 7.83502L89.3391 8.13156C89.044 8.13669 89.044 8.13669 89.3342 7.83502C89.044 8.13669 89.044 8.13669 89.3342 7.83502Z" fill="#040404"/>
<path d="M52.9384 39.6517C53.2398 39.943 53.2398 39.943 52.9384 39.6517C53.2398 39.943 52.9437 39.9477 52.9384 39.6517C52.9437 39.9477 52.9437 39.9477 52.9384 39.6517Z" fill="#040404"/>
<path d="M139.043 26.4079C138.747 26.4126 138.747 26.4126 139.043 26.4079C138.742 26.1166 138.742 26.1166 139.043 26.4079C138.742 26.1166 139.038 26.1119 139.043 26.4079Z" fill="#040404"/>
<path d="M15.7919 46.0858C15.7965 46.3802 15.7965 46.3802 15.7919 46.0858C15.7965 46.3802 15.7965 46.3802 15.7919 46.0858C15.7965 46.3802 15.4963 46.3857 15.7919 46.0858C15.4963 46.3857 15.7919 46.0858 15.7919 46.0858Z" fill="#040404"/>
<path d="M46.9333 69.2037C46.6356 69.2078 46.6356 69.2078 46.9333 69.2037C46.6356 69.2078 46.6295 68.9137 46.9333 69.2037C46.6295 68.9137 46.9333 69.2037 46.9333 69.2037Z" fill="#040404"/>
<path d="M109.477 19.2172L109.482 19.5133C109.191 19.8151 109.187 19.519 109.477 19.2172C109.187 19.519 109.187 19.519 109.477 19.2172Z" fill="#040404"/>
<path d="M57.2842 72.9748C57.2842 72.9748 57.2895 73.2708 57.2842 72.9748C56.9934 73.2755 56.9934 73.2755 57.2842 72.9748C56.9882 72.9796 56.9882 72.9796 57.2842 72.9748Z" fill="#040404"/>
<path d="M118.14 34.8056C118.14 34.8056 118.146 35.0998 118.14 34.8056C117.842 34.8098 117.842 34.8098 118.14 34.8056Z" fill="#040404"/>
<path d="M59.6498 71.4883C59.3296 70.0185 59.6015 68.242 59.2813 66.7723C59.2769 66.4771 58.9699 65.8927 59.5663 65.8811C60.1628 65.8696 60.1672 66.1647 60.1716 66.4598C60.1847 67.3451 60.4918 67.9296 60.5049 68.8149C60.5313 70.5856 61.1497 72.0496 62.0663 73.5078C62.3689 73.7972 62.9741 74.3758 62.3821 74.6825C61.7944 75.2843 61.7812 74.399 61.4786 74.1096C60.869 73.2359 60.255 72.067 59.0621 72.0901C58.7639 72.0959 58.4613 71.8066 58.1587 71.5172C56.9482 70.3599 56.8911 66.5234 57.7639 65.0305C58.0577 64.7296 58.0533 64.4345 58.6497 64.4229C58.9523 64.7122 58.9567 65.0074 58.9611 65.3025C58.3998 67.675 58.7244 69.4399 59.6498 71.4883Z" fill="#040404"/>
<path d="M46.254 61.2678C46.2392 60.0877 46.2243 58.9075 46.812 58.0089C47.1077 57.707 47.3996 57.1102 47.7027 57.3984C48.3053 57.6799 48.0096 57.9817 48.017 58.5718C47.459 61.8308 48.0949 64.7676 49.3297 67.6909C49.6328 67.9791 49.9396 68.5624 49.3445 68.871C48.7494 69.1796 48.1432 68.6031 48.1358 68.013C47.2079 65.6731 46.2837 63.6281 46.254 61.2678Z" fill="#040404"/>
<path d="M40.6524 60.4163C40.6231 58.056 41.5033 56.5603 41.7845 55.0783C41.7808 54.7832 42.0803 54.7764 42.3798 54.7695C42.6793 54.7627 42.9824 55.0508 42.9861 55.3459C42.9971 56.231 42.7049 56.8279 42.7159 57.713C42.1499 60.382 42.4823 63.0305 43.7096 65.3633C43.7132 65.6583 44.0164 65.9465 43.7169 65.9534C43.4211 66.2553 43.1216 66.2621 42.8184 65.9739C42.2158 65.6926 41.9053 64.8144 41.898 64.2243C40.9812 62.7697 40.9629 61.2946 40.6524 60.4163Z" fill="#040404"/>
<path d="M37.9437 51.2494C38.5476 51.5292 38.5508 51.8242 38.2569 52.4219C37.6787 54.5024 37.7011 56.5676 37.7268 58.9279C37.7397 60.108 38.0529 61.2806 38.3661 62.4531C38.3693 62.7482 38.6729 63.0356 38.0754 63.3458C37.775 63.3534 37.4714 63.066 37.4682 62.7709C36.2282 59.2609 35.8861 55.433 37.3494 51.8546C37.3462 51.5596 37.6433 51.257 37.9437 51.2494Z" fill="#040404"/>
<path d="M38.8656 58.6501C38.8552 57.765 38.5484 57.1821 39.1377 56.2827C39.434 55.9805 39.4306 55.6854 39.7339 55.9733C40.0338 55.9661 40.0372 56.2612 40.0407 56.5562C39.7755 59.5137 40.1066 62.1618 41.0374 64.7956C41.0409 65.0906 41.3442 65.3784 40.748 65.6878C40.4481 65.695 40.1483 65.7022 40.1448 65.4071C39.5347 64.5364 39.2244 63.6584 39.214 62.7733C39.1967 61.2982 38.8829 60.1252 38.8656 58.6501Z" fill="#040404"/>
<path d="M67.2985 69.3537C67.0116 70.2452 67.3265 71.4191 66.7407 72.3169C66.4498 72.9134 66.155 73.2148 66.4618 73.7986C66.4658 74.0936 66.4698 74.3887 66.175 74.6901C65.8761 74.6964 65.5732 74.4077 65.5692 74.1126C65.2543 72.9387 65.2423 72.0536 64.9275 70.8797C64.9195 70.2895 64.9155 69.9945 64.9075 69.4044C64.9035 69.1093 64.9035 69.1093 64.8995 68.8143C65.1943 68.5129 65.4972 68.8016 65.5012 69.0966C65.8081 69.6804 66.103 69.379 66.095 68.7889C66.091 68.4938 65.7841 67.9101 66.3818 67.8974C67.2825 68.1734 67.5893 68.7572 67.2985 69.3537Z" fill="#040404"/>
<path d="M52.4795 64.1703C52.7755 63.8683 52.4651 62.9902 52.7576 62.3932C53.0536 62.0912 53.05 61.7961 53.3532 62.0842C53.6529 62.0772 53.6564 62.3722 53.66 62.6673C53.3891 65.0345 53.4178 67.3948 54.6415 69.4321C54.6451 69.7271 54.6486 70.0222 54.6486 70.0222C54.3526 70.3242 54.0494 70.0361 54.0458 69.7411C53.1361 68.8769 52.8186 67.4087 52.5046 66.2356C52.4974 65.6455 52.4902 65.0554 52.4795 64.1703Z" fill="#040404"/>
<path d="M63.7355 67.0223C63.7577 68.7925 63.1809 70.5764 64.1014 72.3261C64.1051 72.6212 64.1051 72.6212 63.8093 72.923C63.5099 72.9298 63.2104 72.9367 63.2067 72.6416C62.2937 71.4819 61.9758 70.0136 62.2605 68.8266C62.2531 68.2365 62.5415 67.3446 62.8335 66.7477C62.8298 66.4527 63.1219 65.8558 63.7208 65.8421C64.3197 65.8285 64.0276 66.4254 64.0313 66.7204C63.7319 66.7273 63.7355 67.0223 63.7355 67.0223Z" fill="#040404"/>
<path d="M79.397 66.9372C79.0986 66.9431 78.7959 66.654 78.7916 66.3589C79.0728 65.1726 79.6524 63.9803 79.9336 62.794C79.9293 62.4989 80.2277 62.493 80.526 62.4871C80.8244 62.4812 80.8287 62.7763 80.833 63.0714C80.5518 64.2577 80.2706 65.444 79.6868 66.3411C79.6954 66.9313 79.397 66.9372 79.397 66.9372Z" fill="#040404"/>
<path d="M83.5461 29.1264C84.1596 30.2913 84.1725 31.4714 84.1821 32.3565C84.5049 34.4141 84.5274 36.4793 84.5498 38.5446C84.553 38.8396 84.5594 39.4297 83.9587 39.4449C83.358 39.4601 83.6519 38.8624 83.3483 38.575C83.0223 36.2223 82.9967 33.8621 82.6706 31.5094C82.661 30.6243 82.9549 30.0267 83.5461 29.1264Z" fill="#040404"/>
<path d="M87.1949 40.9148C87.1788 39.4396 86.8623 37.972 86.8429 36.2018C86.8332 35.3167 86.8267 34.7266 87.4176 33.8264C87.4144 33.5314 87.7115 33.2288 88.0118 33.2212C88.3121 33.2137 88.3154 33.5087 88.3186 33.8037C87.7406 35.8841 88.0603 37.6467 88.3833 39.7044C88.3897 40.2945 88.3962 40.8845 88.0991 41.1871C87.802 41.4897 87.802 41.4897 87.5017 41.4973C86.9043 41.8074 86.9011 41.5124 87.1949 40.9148Z" fill="#040404"/>
<path d="M75.8934 29.1692C76.2103 30.637 76.2304 32.4072 76.5473 33.875C76.5506 34.1701 76.8574 34.7528 76.2606 35.0625C75.6605 35.0772 75.9538 34.4798 75.6504 34.1921C74.72 31.5589 74.6931 29.1987 74.6629 26.5434C74.6596 26.2484 74.6529 25.6583 75.2564 25.9386C75.8565 25.9239 75.8599 26.2189 75.8666 26.809C75.8733 27.3991 75.8834 28.2842 75.8934 29.1692Z" fill="#040404"/>
<path d="M94.2815 41.1462C94.294 42.3264 94.3065 43.5065 94.319 44.6867C94.3221 44.9817 94.3283 45.5718 93.7273 45.5873C93.1262 45.6027 93.4205 45.0049 93.4174 44.7099C93.095 42.6524 92.7694 40.2998 93.3486 38.2191C93.3455 37.9241 93.3361 37.039 93.9403 37.3185C94.5414 37.303 94.2471 37.9008 94.2533 38.4909C94.2627 39.376 94.2721 40.2611 94.2815 41.1462Z" fill="#040404"/>
<path d="M92.2509 42.3306C92.2546 42.6256 92.262 43.2157 91.6633 43.2292C91.3639 43.236 91.3565 42.6459 91.0534 42.3576C90.7279 40.2991 90.3987 37.9455 89.7739 35.8938C89.7665 35.3037 89.7627 35.0087 90.3615 34.9952C90.9602 34.9816 90.6683 35.5785 90.9714 35.8668C91.5962 37.9185 91.9254 40.2721 92.2509 42.3306Z" fill="#040404"/>
<path d="M81.8683 35.3171C81.8753 35.9072 81.8788 36.2022 81.579 36.2093C81.2792 36.2165 80.9794 36.2236 80.9759 35.9285C80.3518 33.8776 80.0275 31.8195 79.9995 29.4592C79.996 29.1642 80.2888 28.567 80.5886 28.5599C81.1882 28.5456 80.8954 29.1428 80.8989 29.4378C81.2232 31.4959 81.5475 33.554 81.8683 35.3171Z" fill="#040404"/>
<path d="M62.5598 21.5846C62.5732 22.7647 62.59 24.2399 63.2036 25.4053C63.2069 25.7003 63.5103 25.988 63.2136 26.2904C62.9169 26.5928 62.6101 26.0101 62.6067 25.715C61.683 23.6719 61.6596 21.6067 61.9362 19.5341C61.9328 19.2391 62.2296 18.9367 62.5296 18.9294C62.8297 18.922 62.8331 19.217 62.8364 19.5121C62.5464 20.4045 62.5531 20.9946 62.5598 21.5846Z" fill="#040404"/>
<path d="M79.5025 34.4456C79.5062 34.7407 79.5099 35.0357 79.2144 35.3375C78.915 35.3442 78.612 35.0559 78.612 35.0559C77.9871 33.0041 77.3622 30.9522 77.3359 28.887C77.3322 28.5919 77.3284 28.2969 77.6277 28.2902C78.2264 28.2767 78.2339 28.8668 78.2377 29.1618C78.2527 30.342 78.567 31.5154 78.8813 32.6888C79.1881 33.2722 79.495 33.8556 79.5025 34.4456Z" fill="#040404"/>
<path d="M69.69 26.8411C69.7 27.7262 69.7099 28.6113 69.423 29.7989C69.4263 30.0939 69.4296 30.389 69.1294 30.3964C68.8292 30.4038 68.8259 30.1088 68.8226 29.8138C68.5026 28.051 68.7829 26.2734 68.4662 24.8056C68.4629 24.5106 68.7631 24.5032 68.7597 24.2081C69.0599 24.2007 69.3634 24.4883 69.3667 24.7833C69.6735 25.366 69.3832 26.2585 69.69 26.8411Z" fill="#040404"/>
<path d="M64.9099 22.7642C64.9064 22.4692 65.2029 22.1669 65.1995 21.8719L65.496 21.5697C65.7959 21.5624 65.7993 21.8575 65.7993 21.8575C66.1233 23.9155 66.1439 25.6857 66.4679 27.7437C66.4714 28.0387 66.4714 28.0387 66.1749 28.3409C65.875 28.3482 65.575 28.3554 65.5716 28.0604C65.2614 27.1825 65.2511 26.2974 64.9443 25.7145C64.9305 24.5344 65.2201 23.6421 64.9099 22.7642Z" fill="#040404"/>
<path d="M56.0885 22.8133C55.7709 21.3451 55.7565 20.1649 55.7385 18.6898C55.7349 18.3947 55.7277 17.8047 56.0237 17.5027C56.3197 17.2007 56.3197 17.2007 56.6193 17.1937C56.9189 17.1868 56.9225 17.4818 56.9261 17.7768C56.9441 19.252 56.9657 21.0222 57.2833 22.4904C56.9945 23.3825 56.3881 22.8063 56.0885 22.8133Z" fill="#040404"/>
<path d="M97.8266 42.8959C97.5402 44.0833 97.5538 45.2634 97.5673 46.4436C97.5707 46.7386 97.5775 47.3287 97.2775 47.3359C96.6775 47.3505 96.6741 47.0555 96.6673 46.4654C96.6538 45.2853 96.6368 43.8102 96.6232 42.6301C96.6164 42.04 96.6096 41.45 97.2096 41.4354C98.113 41.7085 97.8198 42.3059 97.8266 42.8959Z" fill="#040404"/>
<path d="M58.1179 20.4451C58.1071 19.56 58.0999 18.9699 58.3887 18.0779C58.6848 17.7759 58.6812 17.4808 58.9844 17.7689C59.284 17.7619 59.2876 18.057 59.2912 18.352C59.0095 19.8341 58.7279 21.3163 59.6447 22.7705C59.6483 23.0656 59.6519 23.3606 59.3523 23.3676C59.0562 23.6696 58.753 23.3815 58.7494 23.0865C58.143 22.5104 58.1286 21.3302 58.1179 20.4451Z" fill="#040404"/>
<path d="M72.6504 28.3014C72.6603 29.1864 72.667 29.7764 72.6736 30.3664C72.6769 30.6614 72.6802 30.9564 72.3798 30.9638C72.0794 30.9713 72.0761 30.6762 72.0728 30.3813C71.7591 29.2087 71.7425 27.7337 71.726 26.2587C71.7227 25.9637 71.7193 25.6687 72.0198 25.6613C72.3202 25.6538 72.3235 25.9488 72.6272 26.2364C72.9343 26.819 72.6438 27.7114 72.6504 28.3014Z" fill="#040404"/>
<path d="M82.0319 17.9236C82.0117 16.1534 81.6915 14.3906 81.6679 12.3254C81.6646 12.0304 81.6579 11.4403 82.258 11.4256C82.8581 11.4109 82.8648 12.001 82.8682 12.296C82.885 13.7712 83.2019 15.239 82.922 17.0165C82.9287 17.6066 82.6321 17.9089 82.0319 17.9236Z" fill="#040404"/>
<path d="M85.2704 16.1137C85.2776 16.7038 85.2883 17.5889 85.2955 18.179C85.2991 18.474 85.3027 18.769 84.7034 18.783C84.4037 18.79 84.4002 18.495 84.0969 18.2069C84.079 16.7318 83.7615 15.2636 83.7436 13.7884C83.74 13.4934 83.7328 12.9033 84.3321 12.8893C84.6317 12.8824 84.9385 13.4654 84.9421 13.7605C85.2525 14.6386 85.2597 15.2286 85.2704 16.1137Z" fill="#040404"/>
<path d="M111.063 33.3645C111.066 33.6595 111.069 33.9545 111.073 34.2494C111.076 34.5444 111.083 35.1344 110.479 34.8539C109.879 34.8683 110.172 34.2711 110.169 33.9761C110.155 32.7961 109.841 31.6234 109.831 30.7384C109.824 30.1485 109.817 29.5585 110.117 29.5513C110.718 29.5368 110.725 30.1268 110.731 30.7168C110.742 31.6018 110.752 32.4867 111.063 33.3645Z" fill="#040404"/>
<path d="M78.4412 11.1396C78.4533 12.0248 78.4654 12.91 78.1787 13.8014C78.1827 14.0965 78.1868 14.3916 77.5891 14.4041C77.2903 14.4104 77.2863 14.1154 76.9834 13.8266C76.9673 12.6464 76.6564 11.7675 76.6402 10.5872C76.6322 9.99709 76.9269 9.69574 77.2258 9.68945C77.8234 9.67687 77.8315 10.267 77.8395 10.8571C78.4372 10.8445 78.4412 11.1396 78.4412 11.1396Z" fill="#040404"/>
<path d="M111.973 39.2805C111.957 37.8055 111.941 36.3305 111.925 34.8555C111.922 34.5605 111.918 34.2655 112.219 34.2579C112.52 34.2504 112.823 34.5378 112.827 34.8328C112.843 36.3078 112.856 37.4878 112.571 38.9704C112.875 39.2578 112.271 38.978 111.973 39.2805Z" fill="#040404"/>
<path d="M99.8191 28.7226C99.5012 27.2542 99.1796 25.4908 98.8617 24.0224C98.858 23.7274 98.8543 23.4324 99.1501 23.1305C99.4495 23.1237 99.7526 23.4119 99.7563 23.707C100.074 25.1754 100.392 26.6437 100.411 28.1189C100.717 28.7022 100.119 28.7158 99.8191 28.7226Z" fill="#040404"/>
<path d="M97.4363 25.186C97.44 25.4811 97.4437 25.7761 97.148 26.078C97.1517 26.373 96.8522 26.3798 96.8522 26.3798C96.5528 26.3866 96.5528 26.3866 96.5491 26.0916C96.2312 24.6232 96.2164 23.4431 95.8985 21.9747C95.8948 21.6797 96.1869 21.0828 96.4863 21.076C97.0852 21.0624 96.7931 21.6592 96.7968 21.9543C97.111 23.1276 97.4215 24.0059 97.4363 25.186Z" fill="#040404"/>
<path d="M103.29 25.7681C103.887 25.7555 104.19 26.0444 104.493 26.3332C104.812 27.8022 104.828 28.9825 105.446 30.4453C105.45 30.7403 105.753 31.0291 105.159 31.3367C104.86 31.343 104.558 31.0542 104.554 30.7591C103.637 29.3026 103.613 27.5322 103.29 25.7681Z" fill="#040404"/>
<path d="M100.63 24.3066C101.227 24.2941 101.829 24.5765 101.837 25.1667C102.152 26.3406 102.164 27.2258 102.479 28.3998C102.483 28.6948 102.487 28.9899 102.188 28.9962C101.591 29.0088 101.885 28.7074 101.583 28.4186C101.268 27.2447 100.949 25.7757 100.63 24.3066Z" fill="#040404"/>
<path d="M129.657 31.7677C129.661 32.0627 129.967 32.6455 129.367 32.66C128.767 32.6746 128.761 32.0845 128.757 31.7895C128.137 30.0339 128.116 28.2637 128.093 26.1984C128.089 25.9034 128.082 25.3134 128.682 25.2988C129.282 25.2842 128.989 25.8816 128.993 26.1766C129.313 27.9395 129.633 29.7024 129.657 31.7677Z" fill="#040404"/>
<path d="M124.014 26.7843C123.722 27.3813 124.336 28.5476 123.437 28.5683C122.538 28.5891 122.823 27.402 122.816 26.8119C122.802 25.6318 122.487 24.4586 122.173 23.2854C122.17 22.9903 122.166 22.6953 122.163 22.4003C122.159 22.1052 122.455 21.8033 122.754 21.7964C123.054 21.7894 123.058 22.0845 123.061 22.3795C123.375 23.5527 123.992 25.0141 124.014 26.7843Z" fill="#040404"/>
<path d="M104.166 16.8914C103.549 15.43 103.827 13.6529 103.509 12.1847C103.506 11.8896 103.805 11.8827 103.805 11.8827C104.105 11.8758 104.404 11.8689 104.408 12.1639C104.725 13.6322 105.043 15.1004 104.762 16.5825C104.765 16.8775 104.466 16.8844 104.166 16.8914Z" fill="#040404"/>
</g>
</svg>
