<svg width="148" height="142" viewBox="0 0 148 142" fill="none" xmlns="http://www.w3.org/2000/svg">
<g opacity="0.1">
<path d="M137.34 41.7255C140.428 44.6666 141.916 48.581 142.456 52.5907C142.846 54.3248 142.289 56.1541 141.229 57.3689C137.771 61.9278 133.81 65.8722 128.176 67.768C125.257 68.8001 123.174 70.8564 120.887 73.0811C115.7 78.0354 110.717 82.8213 105.194 87.3659C97.2547 93.5571 89.1477 99.5435 81.2453 105.361C77.1918 108.355 73.845 111.794 69.7915 114.787C65.9426 117.612 61.7589 120.027 57.2403 122.033C54.6929 123.101 52.443 124.953 50.3977 126.636C48.185 128.114 46.3071 130.002 44.4292 131.89C40.8778 135.498 37.0655 134.181 34.2571 130.326C31.7834 126.88 31.2436 122.87 33.0096 118.333C37.1181 109.128 41.394 100.127 45.3351 90.7171C47.0268 86.9267 48.8859 83.3411 50.2057 79.5141C51.3581 75.4823 53.9611 71.9698 55.6528 68.1793C57.3445 64.3889 59.5755 60.8398 59.8539 56.1569C59.9836 52.9666 60.4482 50.1861 58.8857 47.018C58.0859 45.6205 58.6436 43.7912 59.1641 42.335C60.8929 38.1714 63.998 35.2735 67.9772 33.0266C72.57 30.2749 77.5536 29.2572 82.444 27.2883C84.0059 26.6881 85.6981 26.666 87.1858 26.8121C89.4173 27.0313 91.686 26.8774 93.9547 26.7235C101.504 26.3348 108.961 24.9948 116.307 28.5427C120.249 30.4373 124.675 31.249 128.172 33.8534C131.668 36.4579 135.239 38.316 137.34 41.7255ZM73.1508 64.0577C73.188 63.6845 73.2251 63.3113 72.8532 63.2748C72.4813 63.2382 72.8161 63.648 72.7789 64.0211C71.5146 65.4042 71.1427 65.3677 70.5474 63.8019C69.915 62.6093 69.6545 61.4532 71.0862 60.275C70.3052 60.5751 68.929 59.3094 69.1152 61.2118C69.2083 62.163 69.9709 63.9337 69.19 64.2338C67.2561 64.7974 68.8369 65.8948 68.3907 66.6046C67.7399 67.4827 66.9589 67.7828 65.8803 67.3C65.341 67.0586 65.0434 66.2757 64.5041 66.0343C63.5933 69.5247 65.0439 70.044 70.6969 69.8458C70.3622 69.4361 70.1948 69.2312 69.86 68.8215C69.5252 68.4118 69.395 67.8337 69.804 67.4971C70.2131 67.1605 70.585 67.197 71.1243 67.4384C73.2073 69.1503 72.8165 67.4162 72.928 66.2967C73.0023 65.5504 73.4485 64.8406 73.1508 64.0577ZM128.38 63.8314C126.725 63.4804 125.795 61.5049 123.898 61.6954C123.322 61.8272 123.229 60.8759 123.266 60.5028C123.489 58.2637 124.455 56.0978 126.464 54.7878C127.691 53.7779 128.918 52.768 129.978 51.5532C132.953 48.0772 135.258 47.5501 138.327 48.7936C138.029 48.0107 137.732 47.2279 137.434 46.445C137.267 46.2401 137.099 46.0353 136.932 45.8304C132.078 39.8895 126.331 35.3683 119.078 32.7716C117.256 32.2158 115.266 31.455 113.648 30.7308C110.784 29.319 107.641 28.8218 104.796 29.1075C100.631 29.4519 96.5398 29.05 92.5046 29.9724C90.9798 30.1994 89.2876 30.2216 87.6325 29.8706C86.7213 29.5927 85.5684 29.8562 84.5829 30.3246C79.7296 31.9203 74.7089 33.3112 70.1161 36.063C67.1225 37.8414 64.8355 40.066 63.3854 43.315C62.6975 44.5663 62.7535 45.8907 63.3487 47.4565C64.409 50.01 64.8929 52.6953 64.0564 55.4393C63.7405 56.7271 63.629 57.8466 63.685 59.171C64.6334 59.0758 65.4143 58.7757 65.8605 58.0659C66.5113 57.1878 66.9575 56.4779 68.1104 56.2144C70.6579 55.1458 73.038 53.8723 75.7157 53.3818C78.7653 52.9277 82.224 52.1371 85.2925 53.3806C87.1149 53.9365 89.0676 55.0704 91.0575 55.8311C96.0786 58.2085 98.1804 61.618 97.1582 66.2279C96.7308 68.6353 95.4293 70.3915 93.9233 72.3161C91.7666 75.1188 89.3122 77.1386 86.6533 79.3267C81.9491 83.198 76.8913 84.9621 70.8475 83.4262C65.7149 82.1683 62.6276 79.2272 61.8645 73.6883C61.6783 71.7859 61.083 70.2201 60.562 67.908C56.6764 74.8743 53.9066 81.9502 50.5974 88.7848C51.3784 88.4847 51.5829 88.3164 51.8246 87.7749C52.8844 86.5601 53.7768 85.1405 54.8366 83.9257C55.4873 83.0476 56.7145 82.0377 57.756 82.8937C58.9649 83.9545 60.1178 83.6909 61.4752 83.2591C62.6281 82.9955 64.1158 83.1417 65.6034 83.2878C68.0023 83.7119 70.0853 85.4239 69.8624 87.6629C69.6955 91.2263 68.2826 94.1021 65.5866 96.6634C63.5041 98.7198 60.6219 99.3787 57.6094 99.4595C56.8655 99.3864 56.0845 99.6865 55.3036 99.9866C53.7416 100.587 52.663 100.104 51.6587 98.8749C50.1522 97.0312 49.4267 94.8873 49.4821 92.4434C49.6867 92.2751 49.7238 91.9019 49.3519 91.8654C48.98 91.8289 48.9428 92.202 48.9057 92.5752C47.5299 95.0778 46.5261 97.617 45.1503 100.12C43.3283 103.332 42.7524 107.232 40.7259 110.613C40.038 111.864 38.5691 113.415 38.7925 114.945C38.9787 116.847 37.956 117.689 37.2681 118.94C36.7476 120.396 36.0598 121.647 36.6179 123.586C37.0458 124.947 36.5253 126.404 37.3251 127.801C38.5899 130.186 40.0404 130.706 42.0486 129.396C42.6622 128.891 43.2758 128.386 43.8894 127.881C45.7301 126.366 47.4407 124.273 49.4117 123.336C54.1347 121.162 57.5558 116.977 61.4419 113.779C62.8736 112.6 63.9706 111.012 65.4394 109.461C63.4125 109.073 62.2779 107.266 60.2138 107.252C59.4699 107.179 58.9678 106.564 58.8747 105.613C58.7444 105.035 59.1906 104.325 59.7671 104.193C61.4593 104.171 62.1472 102.92 63.3372 102.283C65.1408 101.142 66.7959 101.493 68.135 103.131C68.9719 104.156 69.0279 105.48 69.0839 106.804C72.3935 103.738 76.503 102.069 79.8126 99.0031C79.143 98.1837 78.3992 98.1106 77.5439 99.1571C76.6887 100.204 75.7403 100.299 75.926 98.4329C75.9632 98.0597 75.7958 97.8549 75.8329 97.4817C74.1402 93.7356 75.9993 90.15 79.9973 89.6007C81.5222 89.3737 82.6751 89.1101 84.1999 88.8831C85.3528 88.6196 86.3012 88.5243 87.3798 89.0071C88.6258 89.6948 88.5143 90.8143 88.5703 92.1387C91.2664 89.5774 94.1298 87.2209 96.8258 84.6596C95.3382 84.5135 94.4269 84.2355 93.3855 83.3796C91.9721 82.4871 92.2138 81.9456 93.1062 80.5259C95.9137 76.8451 100.153 75.7544 104.058 74.2539C104.635 74.1221 105.379 74.1952 105.509 74.7732C105.974 75.761 106.383 75.4243 106.996 74.9194C107.815 74.2461 108.502 72.9948 109.488 72.5264C112.482 70.748 114.638 67.9453 117.093 65.9255C118.729 64.5789 118.543 62.6765 116.795 61.3743C116.255 61.1329 115.549 60.6866 115.623 59.9403C115.567 58.6159 114.321 57.9283 113.242 57.4455C106.771 54.5487 99.8157 52.7349 92.6189 51.4626C84.8829 49.9489 76.9983 49.928 69.1326 51.6045C68.3516 51.9046 67.5334 52.5779 66.901 51.3853C66.436 50.3975 67.5889 50.134 68.2025 49.629C68.6116 49.2924 69.188 49.1606 69.5971 48.824C72.1074 48.1286 74.7852 47.638 77.2583 47.3157C82.744 46.9126 87.9509 47.4242 93.4925 48.3455C100.317 49.5812 106.733 51.1536 113.037 53.8455C116.645 55.3304 119.844 57.152 121.332 61.0664C121.797 62.0542 122.969 63.4882 121.742 64.4981C118.674 67.0228 116.443 70.5719 113.207 72.8918C108.707 76.5948 104.375 80.5026 100.006 84.7836C94.8182 89.7379 89.8351 94.5239 84.1454 98.8636C82.5091 100.21 80.6684 101.725 79.0321 103.072C83.0484 100.452 86.8974 97.6267 90.5418 94.9701C96.1944 91.0036 101.14 86.5908 106.626 82.4194C111.125 78.7164 115.123 74.3989 119.66 70.3227C122.021 67.3517 125.015 65.5733 128.38 63.8314C128.715 64.2411 128.919 64.0728 129.124 63.9045C128.752 63.868 128.38 63.8314 128.38 63.8314ZM87.7498 73.9705C90.5761 71.9872 92.3237 69.5212 93.5321 66.8137C94.7033 64.4794 94.2566 61.421 92.5085 60.1187C88.1381 56.8632 83.1169 54.4857 77.4267 55.0572C73.6332 55.4381 67.9618 57.7071 66.2141 60.1732C67.683 58.6218 69.5797 58.4313 71.4765 58.2408C72.7968 58.1821 73.3361 58.4235 73.8011 59.4113C75.8286 63.5671 75.0481 67.6355 73.1518 71.5942C73.6911 71.8356 74.4349 71.9087 74.9743 72.1501C75.8855 72.4281 76.555 73.2475 76.2762 74.1622C75.5883 75.4135 76.2207 76.6061 76.3138 77.5573C76.5743 78.7133 76.6674 79.6645 75.8122 80.711C78.3968 79.2692 81.6138 79.02 83.9379 76.4222C81.595 77.3225 79.5309 77.3081 78.2289 75.2961C76.5922 72.8743 78.842 71.0228 80.0133 68.6885C79.0277 69.1569 77.8189 68.0961 77.131 69.3474C76.8893 69.8889 76.9824 70.8401 76.0712 70.5622C75.16 70.2842 75.2343 69.5379 75.3085 68.7915C75.4012 65.9745 75.6612 63.3622 76.1257 60.5817C76.6274 57.428 78.9703 56.5277 81.6669 57.7347C82.7455 58.2175 83.4522 58.6637 84.5308 59.1465C88.5105 60.668 88.8641 62.7753 85.8892 66.2512C85.443 66.961 83.9182 67.1881 84.2158 67.9709C84.8482 69.1636 85.908 67.9488 86.6518 68.0219C87.6002 67.9266 88.1395 68.168 88.6417 68.7826C89.1438 69.3972 89.0696 70.1435 88.6234 70.8533C88.8838 72.0094 88.4376 72.7192 87.7498 73.9705ZM55.5621 86.0695C54.2047 86.5014 54.3909 88.4038 53.3682 89.2454C52.141 90.2553 51.8251 91.5432 51.5091 92.831C51.156 94.492 51.9187 96.2626 52.923 97.4918C53.7599 98.5161 54.9871 97.5062 55.9355 97.4109C57.2558 97.3522 58.2413 96.8838 59.5616 96.8251C60.5099 96.7299 61.2909 96.4298 62.0719 96.1297C64.6565 94.6879 65.6604 92.1488 66.8316 89.8145C67.7983 87.6485 66.9985 86.2511 64.5996 85.827C62.9445 85.476 61.4197 85.703 60.0623 86.1348C59.1139 86.2301 58.1655 86.3253 57.2915 85.6742C56.6219 84.8548 56.0455 84.9866 55.5621 86.0695ZM130.109 59.6678C131.28 57.3335 134.367 56.5063 135.575 53.7988C135.854 52.8842 136.3 52.1744 135.798 51.5598C135.296 50.9452 134.645 51.8234 133.864 52.1234C131.652 53.6018 129.941 55.6947 128.398 57.9924C127.747 58.8705 127.71 59.2437 128.212 59.8583C128.882 60.6777 129.328 59.9679 130.109 59.6678ZM76.2415 93.3768C77.3201 93.8596 78.3987 94.3423 79.2728 94.9935C79.9795 95.4397 80.3514 95.4763 80.965 94.9713C82.3967 93.7931 83.6611 92.41 84.5906 90.6172C81.8758 91.481 78.4354 90.2009 76.2415 93.3768ZM67.5368 78.9559C65.7699 75.9561 65.807 75.5829 69.5629 71.8069C67.1268 71.756 64.821 72.2831 63.1471 70.2345C63.7241 73.871 63.7617 77.2661 67.5368 78.9559ZM64.3801 114.444C68.9358 112.065 72.2826 108.626 76.0013 105.223C71.4828 107.229 67.9315 110.836 64.3801 114.444ZM79.0268 61.6204C78.8222 61.7887 78.8222 61.7887 78.6177 61.957C78.3389 62.8717 77.9858 64.5327 78.3577 64.5692C79.4363 65.052 80.5149 65.5348 81.389 66.1859C82.2631 66.837 83.4903 65.8271 84.3456 64.7807C81.8724 65.1029 79.678 64.5105 79.0268 61.6204ZM83.7315 61.5174C79.7889 59.6227 79.7889 59.6227 78.9337 60.6692C81.0349 60.3104 81.5742 60.5518 81.6862 63.2005C81.965 62.2859 82.5786 61.7809 83.7315 61.5174ZM69.3217 76.1167C70.4374 76.2263 70.8653 77.5872 71.9251 76.3724C72.3713 75.6626 72.0737 74.8797 71.9063 74.6749C70.6231 74.3604 70.1398 75.4434 69.3217 76.1167ZM136.487 57.8451C134.274 59.3234 133.14 61.2845 131.504 62.631C133.475 61.6942 135.316 60.1794 136.487 57.8451ZM94.9658 80.7086C96.4906 80.4816 96.4906 80.4816 97.9966 78.5571C96.4718 78.7841 95.9884 79.8671 94.9658 80.7086ZM62.5939 105.978C63.877 106.293 64.3792 106.907 65.0299 106.029C65.439 105.693 65.3087 105.115 64.7694 104.873C64.0627 104.427 63.7839 105.342 62.5939 105.978ZM84.2351 73.4368C82.9148 73.4955 82.6172 72.7126 82.0779 72.4712C81.6688 72.8078 81.2226 73.5177 81.5574 73.9274C82.2641 74.3736 82.8777 73.8687 84.2351 73.4368Z" fill="#060606"/>
<path d="M72.7337 64.0367C72.9389 63.8686 72.4353 63.2553 72.8083 63.2917C73.1813 63.3281 73.144 63.7006 73.1067 64.0731C72.9016 64.2411 72.7337 64.0367 72.7337 64.0367Z" fill="#FBFBFB"/>
<path d="M48.4196 92.7679C48.4569 92.3949 48.4941 92.022 48.8664 92.0585C49.2387 92.0949 49.2014 92.4678 48.9967 92.6361C48.7919 92.8043 48.7919 92.8043 48.4196 92.7679Z" fill="#FBFBFB"/>
<path d="M128.413 63.626C128.786 63.6628 128.786 63.6628 129.158 63.6996C128.953 63.8676 128.749 64.0357 128.413 63.626C128.208 63.7941 128.413 63.626 128.413 63.626Z" fill="#FBFBFB"/>
<path d="M102.312 59.4611C104.638 56.865 108.026 56.8207 111.711 57.5587C112.995 57.873 113.907 58.1507 114.131 59.6789C114.559 61.0389 113.908 61.9164 112.884 62.7575C110.837 64.4395 108.492 65.3392 105.756 64.506C104.676 64.0235 103.597 63.5411 102.406 64.1774C100.842 64.7772 100.414 63.4172 99.9113 62.8031C99.2412 61.9842 100.228 61.5161 100.842 61.0115C100.916 60.2656 101.493 60.1339 102.312 59.4611ZM104.434 60.7989C106.63 61.3909 109.125 62.7653 111.078 60.1327C108.51 59.5042 106.276 59.2851 104.434 60.7989Z" fill="#060606"/>
<path d="M48.7829 107.269C49.1924 106.933 49.6391 106.223 50.3465 106.669C51.2587 106.947 50.9796 107.861 50.9424 108.234C50.9613 109.93 51.3524 111.663 51.3713 113.359C51.2786 116.174 49.2312 117.856 46.625 117.6C44.7634 117.418 43.758 116.19 44.1115 114.53C44.9488 111.788 46.7355 108.951 48.7829 107.269ZM48.7463 111.407C48.951 111.239 48.7835 111.034 48.7835 111.034C48.7835 111.034 48.5787 111.203 48.374 111.371C47.6854 112.621 47.2015 113.703 46.8852 114.99C48.9887 114.632 49.2306 114.091 48.7463 111.407Z" fill="#060606"/>
<path d="M48.3661 111.371C48.5705 111.203 48.7749 111.035 48.7749 111.035C49.1467 111.071 48.9423 111.24 48.7379 111.408C48.5705 111.203 48.3661 111.371 48.3661 111.371Z" fill="#FBFBFB"/>
</g>
</svg>
