<svg width="120" height="37" viewBox="0 0 120 37" fill="none" xmlns="http://www.w3.org/2000/svg">
<path opacity="0.1" d="M0.378282 19.2835C-0.344889 13.5067 1.46304 11.3404 7.24841 12.0625C13.757 12.7846 20.2655 14.2288 26.774 14.2288C39.7911 14.2288 52.4466 12.4236 64.379 5.92466C72.6954 1.231 81.3735 -1.29636 91.1363 1.59205C95.8369 3.03625 99.8144 5.20256 101.984 9.89622C102.345 10.6183 103.792 11.3404 104.877 11.7015C110.3 13.1457 116.086 14.5899 119.34 20.0057C119.34 21.0888 118.978 22.172 119.34 23.2551C118.255 23.2551 116.809 23.6162 115.724 23.2551C112.831 22.172 110.3 20.7278 107.769 19.6446C107.046 19.2836 104.877 20.0056 104.877 20.7278C103.069 26.1435 98.7296 25.7825 94.3906 26.8656C88.2436 28.3098 82.4582 30.1151 76.3113 31.5593C65.1021 34.0866 53.5314 37.6971 41.5991 35.1698C32.1978 33.7256 22.435 32.2814 12.3106 30.4761C5.80207 29.393 1.10145 25.0604 0.378282 19.2835ZM95.4753 12.0625C94.029 10.6183 91.8595 9.53517 91.1363 7.72992C90.0515 5.56361 88.9668 5.20256 87.1589 4.84151C79.204 2.6752 72.3338 6.28571 65.8253 9.53517C49.9155 17.8393 33.2826 19.6446 15.9265 17.4783C12.6722 16.7562 9.41793 16.3951 6.16365 15.673C3.99414 15.673 2.90938 16.3951 3.99414 18.5614C5.0789 20.7278 6.52524 23.6162 8.33317 25.0604C10.5027 26.5046 13.3954 27.2267 15.9265 27.5877C27.8588 29.393 39.7911 31.9203 51.7235 32.6424C61.8479 33.3645 71.6107 30.4761 81.0119 26.5046C84.9893 24.6993 90.0515 25.0604 92.9442 20.7278C90.4131 17.1172 90.4131 16.0341 95.4753 12.0625Z" fill="#020202"/>
</svg>
