<svg width="108" height="190" viewBox="0 0 108 190" fill="none" xmlns="http://www.w3.org/2000/svg">
<g opacity="0.1">
<path d="M65.2508 100.472C67.5173 99.5044 68.5933 97.5381 69.4525 95.2211C69.8453 93.6941 69.6981 92.2205 69.3709 90.7645C69.0437 89.3085 68.2316 88.4584 67.4012 87.4241C66.5891 86.574 65.7586 85.5397 64.785 84.8916C63.4329 84.0947 62.0808 83.2978 60.4608 83.4575C59.9207 83.5107 59.1823 83.3974 58.6423 83.4507L58.6239 83.2665C60.2071 82.7384 61.1584 81.3424 62.7417 80.8143C64.3249 80.2862 65.853 79.2055 66.749 77.2569C68.3835 75.4216 68.3242 73.0091 67.905 70.6321C67.3753 67.1498 66.6473 63.501 64.7143 60.5291C64.0639 59.477 63.2703 58.8111 62.2966 58.163C61.3413 57.6991 60.5477 57.0332 59.6293 56.9377C59.4492 56.9554 59.0524 56.6225 58.6924 56.658L58.494 56.4915C58.6556 56.2895 58.6188 55.9211 58.9788 55.8856C59.8421 55.4285 60.5437 55.1733 61.4069 54.7162C62.4318 54.0571 63.2582 53.2315 64.0846 52.406C65.8439 50.0003 67.82 47.9453 69.5792 45.5396C70.0641 44.9337 70.3689 44.3456 70.6553 43.5733C70.9601 42.9851 70.2728 41.5647 69.6776 41.0652C68.4687 39.8822 66.955 39.2873 65.5662 38.122C64.7541 37.2719 63.6557 37.1941 62.5204 36.7479C60.6467 36.1885 58.9346 35.4271 56.8993 35.0696C54.864 34.7121 52.9903 34.1527 50.9918 34.1636C50.8118 34.1814 50.4518 34.2168 50.2718 34.2346C49.1917 34.341 48.9933 34.1745 49.0629 33.0515C49.1141 31.7443 48.9853 30.4548 48.8564 29.1653C48.5068 25.6653 48.1571 22.1652 47.7891 18.481C47.6603 17.1915 47.5314 15.902 47.5826 14.5948C47.689 13.8402 47.2738 13.323 47.2002 12.5862C46.7993 10.3934 46.5601 7.99862 46.3393 5.78806C46.3025 5.41963 46.0857 5.06895 46.6073 4.83151C46.7873 4.81377 46.7689 4.62956 46.7505 4.44535C46.4785 3.54202 45.1264 2.74514 44.2263 2.83385C43.5063 2.90481 42.9847 3.14226 42.283 3.39744C41.923 3.43292 41.9414 3.61712 41.9782 3.98554C42.4487 5.05534 42.3607 5.99415 42.2911 7.11717C42.2215 8.24019 42.1703 9.5474 42.2807 10.6527C42.3175 11.0211 42.3543 11.3895 42.5896 11.9244C42.9864 12.2574 42.88 13.012 42.7368 13.3981C42.2704 14.1882 42.5424 15.0915 42.616 15.8284C42.892 18.5916 43.3665 21.5212 44.0025 24.2489C44.6938 27.5293 44.4666 30.7141 44.9779 34.0122C45.0147 34.3806 44.8531 34.5826 44.6731 34.6003C44.3131 34.6358 43.9714 34.8555 43.8098 35.0574C43.6298 35.0752 43.6482 35.2594 43.4498 35.0929C42.6378 34.2428 41.6129 34.9019 40.9113 35.1571C38.4464 35.9581 36.1615 36.7414 33.895 37.7089C32.4917 38.2192 31.5037 39.2467 30.714 40.4407C29.4396 42.2405 28.3636 44.2069 27.2875 46.1732C26.9827 46.7613 27.0195 47.1297 27.6148 47.6291C29.1837 48.7767 30.6093 50.3104 32.0166 51.6599C32.6119 52.1593 33.1887 52.4745 33.7839 52.974C34.956 53.7886 35.768 54.6387 36.9585 55.6375C37.5537 56.1369 38.1674 56.8206 39.0674 56.7318C39.2474 56.7141 39.2658 56.8983 39.2474 56.7141C39.9123 56.0905 40.6691 56.388 41.4259 56.6854C41.0843 56.9051 40.9227 57.1071 40.5627 57.1425C38.0978 57.9436 37.2018 59.8921 36.901 62.3401C36.813 63.2789 36.5634 64.4197 36.4754 65.3585C35.9066 68.763 35.5178 72.1498 35.129 75.5366C35.041 76.4754 35.3314 77.5629 35.4235 78.484C35.4419 78.6682 35.6587 79.0189 35.8387 79.0011C36.0187 78.9834 36.1987 78.9657 36.0371 79.1676C35.7691 80.1242 36.5259 80.4216 36.9412 80.9388C38.9805 83.1561 40.5862 84.6721 43.1983 85.3448C40.3406 87.6728 38.835 90.7976 39.5998 94.8148C40.1847 98.8497 42.4408 101.418 45.8834 103.125C44.6602 103.617 43.4001 103.742 42.3385 104.032C41.7984 104.085 41.2584 104.139 40.7552 104.56C40.072 105 39.7856 105.772 39.6976 106.711C39.8856 110.413 39.7136 114.15 40.0817 117.835C40.1553 118.571 40.3905 119.106 40.4457 119.659C40.7177 120.562 40.4681 121.703 40.8834 122.22C41.5154 123.088 42.1843 124.324 43.4443 124.2C43.6243 124.182 43.8043 124.165 44.1644 124.129C42.5995 124.841 41.0162 125.37 39.6498 126.248C38.4449 126.925 37.4753 128.137 36.2888 128.998C36.1272 129.2 35.9656 129.402 35.624 129.621C34.0407 130.15 33.5047 132.063 33.3287 133.94C33.0975 135.265 33.7664 136.501 34.4168 137.554C34.832 138.071 35.3905 138.202 35.9489 138.333C37.9474 138.322 40.1443 138.477 42.1428 138.466C43.7813 138.491 45.4014 138.331 47.0582 138.54C47.7967 138.653 48.3551 138.784 49.0935 138.897C50.7688 139.29 52.4441 139.683 54.3362 140.427C52.933 140.937 51.5297 141.448 50.3248 142.125C47.9151 143.478 46.1007 145.331 44.7198 147.886C44.415 148.474 43.875 148.527 43.5702 149.115C42.8358 150.862 42.4798 152.757 42.1238 154.653C41.823 157.1 41.1622 159.584 41.2398 162.181C41.387 163.654 40.7958 165.015 41.123 166.471C41.3766 167.19 41.4503 167.927 41.3439 168.681C41.2191 169.252 42.1743 169.716 42.7327 169.847C44.1912 169.889 45.1793 168.861 46.4209 168.553C49.6059 167.681 52.5004 165.722 55.9206 165.384C56.4606 165.331 56.7838 164.927 57.3054 164.69C57.827 164.452 58.1871 164.417 58.4591 165.32C58.5511 166.241 58.4631 167.18 59.0951 168.048C59.3304 168.583 59.2056 169.153 59.2608 169.706C59.3896 170.995 59.14 172.136 59.2504 173.241C59.7249 176.171 60.3793 179.083 60.3137 182.066C60.3178 183.926 61.1666 185.144 62.0339 186.547C62.0523 186.731 62.2507 186.898 62.4491 187.064C62.8643 187.581 63.4228 187.712 63.5292 186.958C64.1204 185.597 64.7116 184.237 64.9244 182.728C65.0492 182.157 64.4723 181.842 64.4171 181.289C63.8875 177.807 63.7362 174.474 63.0266 171.009C62.9162 169.904 62.9673 168.597 62.8569 167.491C62.7465 166.386 62.8345 165.447 62.5441 164.36C62.0368 162.921 62.3416 162.333 63.3849 161.858C66.6762 160.232 69.9308 158.237 73.439 156.961C74.1406 156.706 74.6438 156.284 75.147 155.863C76.8551 154.764 78.5816 153.85 80.5065 153.102C81.0281 152.865 81.5313 152.443 81.8545 152.039C82.3577 151.617 82.1593 151.451 81.7625 151.118C78.8415 149.173 76.2254 146.641 72.9996 145.285C72.6212 145.136 72.2428 144.987 72.9076 144.364C74.2372 143.116 75.1885 141.72 75.7429 139.992C75.8677 139.421 76.4629 139.921 76.6613 140.087C77.2566 140.586 77.8334 140.902 78.5718 141.015C79.3287 141.312 80.2287 141.224 81.1288 141.135C81.4888 141.099 81.6688 141.082 81.7936 140.511C81.9184 139.941 82.2232 139.353 82.168 138.8C82.1128 138.248 82.076 137.879 81.3559 137.95C80.4559 138.039 79.5375 137.943 78.619 137.848C78.259 137.883 77.8806 137.735 77.5022 137.586C76.3853 137.324 75.7717 136.64 75.6244 135.167C75.6532 131.815 74.0987 128.992 72.0226 126.406C71.4089 125.723 70.9753 125.021 70.2001 124.54C69.8032 124.207 69.8032 124.207 70.1265 123.803C71.9593 122.134 73.017 119.983 74.2546 117.815C74.3978 117.429 74.3426 116.876 74.4858 116.49C74.5922 115.735 74.8602 114.779 74.7866 114.042C74.8194 112.551 74.5105 111.279 74.5433 109.787C74.5577 108.112 74.2121 106.472 74.0649 104.998C74.0792 103.322 73.1056 102.674 71.9335 101.86C70.7799 101.229 69.6446 100.783 68.3661 100.723C68.0061 100.758 67.6461 100.794 67.2861 100.829C66.7276 100.698 65.9708 100.401 65.2508 100.472ZM74.599 152.196C74.4005 152.03 74.2205 152.047 74.0221 151.881C71.9684 151.339 70.0763 150.595 68.041 150.238C65.9873 149.696 64.132 149.321 62.1151 149.148C61.7551 149.183 61.0535 149.438 60.8182 148.904C60.583 148.369 60.4398 148.755 60.0798 148.79C59.8998 148.808 59.9182 148.992 59.5582 149.028C58.4597 148.95 57.4165 149.425 56.3732 149.9C56.6084 150.435 56.9685 150.399 57.2917 149.995C57.4533 149.793 57.6333 149.775 57.8133 149.758C59.7566 149.194 61.6119 149.569 63.4488 149.76C65.6457 149.916 67.8978 150.624 69.9515 151.166C72.0052 151.708 74.0589 152.249 75.6462 153.581C75.4846 153.783 75.3046 153.801 75.1062 153.634C74.331 153.153 73.5557 152.671 72.6189 152.391C71.862 152.094 70.962 152.182 70.2051 151.885C67.773 151.194 65.2345 151.259 62.8392 150.937C60.8223 150.763 59.059 151.309 57.2957 151.855C56.5941 152.11 56.0724 152.348 55.3892 152.787C53.8611 153.868 52.9283 155.448 51.9955 157.028C50.5962 159.398 49.7738 162.084 48.9514 164.769C48.665 165.541 48.3786 166.314 47.3169 166.604C47.6217 166.016 46.8649 165.719 46.9897 165.148C47.2393 164.008 47.3089 162.885 47.5769 161.928C48.1313 160.199 49.0457 158.435 49.7802 156.688C50.5146 154.942 51.6274 153.344 52.9571 152.097C53.8019 151.455 54.4667 150.832 55.3116 150.19C54.5731 150.077 54.2315 150.297 53.7099 150.534C52.3802 151.781 50.8522 152.862 49.9193 154.442C49.3097 155.619 48.7185 156.979 48.1089 158.155C46.728 160.71 46.2841 163.544 45.8401 166.378C45.7153 166.948 45.7337 167.133 45.1752 167.002C44.9584 166.651 45.12 166.449 45.0832 166.08C45.288 160.852 46.2312 155.736 48.8681 151.197C50.1057 149.029 51.7954 147.746 53.9003 146.981C56.0052 146.215 58.3637 146.169 60.5606 146.325C62.0191 146.367 63.5144 146.778 64.848 147.39C66.5417 147.967 68.0922 148.931 69.8043 149.692C70.958 150.323 72.2732 150.751 73.4453 151.566C74.3821 151.845 74.5806 152.012 74.599 152.196C74.779 152.178 74.959 152.161 74.9774 152.345C75.7342 152.642 76.3111 152.957 77.0679 153.255C76.5647 153.676 76.2047 153.712 75.9694 153.177C75.7526 152.826 75.3742 152.678 74.9774 152.345C74.7974 152.362 74.779 152.178 74.599 152.196ZM71.7201 119.739C71.7201 119.739 71.9001 119.721 71.7201 119.739C71.9001 119.721 71.9001 119.721 71.7201 119.739C71.1657 121.468 70.1776 122.495 68.3591 122.489C67.8191 122.542 67.4223 122.209 67.0439 122.06C65.927 121.798 64.935 120.966 63.7997 120.52C65.6182 120.526 67.5615 119.963 69.38 119.97C70.2984 120.065 71.0185 119.994 71.7201 119.739ZM43.042 54.6659C42.7556 55.4382 42.2156 55.4914 41.7123 55.9131C41.2091 56.3347 40.5771 55.4669 39.8939 55.9063C40.6651 54.5281 41.0251 54.4926 42.322 54.7369C42.6636 54.5172 42.862 54.6836 43.042 54.6659C42.7884 53.9468 42.0867 54.202 41.5099 53.8867C41.8147 53.2986 42.5164 53.0435 43.038 52.806C43.5596 52.5686 43.666 51.814 44.206 51.7608C45.4477 51.4524 46.8326 50.7578 48.291 50.8001C48.8311 50.7469 49.3895 50.8779 49.7679 51.0266C51.4616 51.6038 52.9569 52.0145 54.489 52.7936C55.841 53.5905 57.3731 54.3696 58.8868 54.9646C57.8988 55.9921 57.0171 56.265 55.8451 55.4504C55.6466 55.2839 55.2682 55.1351 54.8898 54.9864C54.313 54.6712 53.7545 54.5402 54.2025 53.566C54.3642 53.364 54.3457 53.1798 54.1657 53.1975C53.9673 53.0311 53.9857 53.2153 53.8241 53.4172C53.5561 54.3738 53.1777 54.225 52.4209 53.9276C52.2224 53.7611 52.0424 53.7788 51.8624 53.7966C51.3224 53.8498 51.1056 53.4991 51.0504 52.9465C51.0136 52.5781 51.1752 52.3761 50.7784 52.0432C49.4447 51.4305 48.1294 51.0021 46.7446 51.6966C46.4029 51.9163 46.2229 51.9341 46.4397 52.2847C46.6934 53.0039 46.3518 53.2235 45.8117 53.2768C45.6317 53.2945 45.2901 53.5142 45.1101 53.5319C44.4085 53.7871 43.942 54.5772 43.042 54.6659ZM31.4318 47.625C31.8286 47.9579 32.2438 48.4751 32.8206 48.7903C34.1911 49.7714 35.3816 50.7702 36.2304 51.9887C36.6641 52.6901 37.4393 53.1718 38.0345 53.6712C38.233 53.8377 38.4314 54.0041 38.593 53.8022C38.7546 53.6002 38.5562 53.4338 38.5378 53.2496C38.0121 51.6271 36.9833 50.4263 35.9544 49.2255C34.6719 47.3056 33.0662 45.7897 31.7837 43.8698C31.5669 43.5191 31.3869 43.5368 31.0637 43.9407C30.5973 44.7308 29.9325 45.3544 29.6644 46.3109C29.2676 45.978 29.0692 45.8115 28.6908 45.6628C28.4924 45.4963 28.294 45.3299 28.4556 45.1279C28.922 44.3378 29.3884 43.5478 29.8548 42.7577C30.2332 42.9064 30.27 43.2748 30.6301 43.2394C30.6117 43.0552 30.5933 42.8709 30.5749 42.6867C29.998 42.3715 30.3212 41.9676 30.4644 41.5814C31.1109 40.7736 31.9925 40.5007 32.6573 39.8771C32.8189 39.6752 33.0358 40.0258 33.0542 40.2101C33.4694 40.7272 33.7046 41.2621 33.9398 41.797C33.9582 41.9812 34.1382 41.9635 34.3182 41.9457C34.4982 41.928 34.4614 41.5596 34.2814 41.5773C34.0462 41.0424 33.6126 40.3411 33.3774 39.8062C33.1606 39.4555 33.1422 39.2713 33.4838 39.0516C34.6518 38.0063 36.2351 37.4782 37.6384 36.9679C37.9984 36.9324 38.3584 36.8969 38.252 37.6515C38.432 37.6338 38.8104 37.7825 38.5752 37.2476C38.5384 36.8792 38.7 36.6772 39.06 36.6417C40.5001 36.4998 41.9402 36.3579 43.3618 36.0317C43.9019 35.9785 43.9203 36.1627 43.9755 36.7154C44.0307 37.268 44.0859 37.8206 44.1411 38.3733C44.1595 38.5575 44.1779 38.7417 44.5379 38.7062C44.7179 38.6885 44.6995 38.5043 44.6811 38.32C44.6259 37.7674 44.7323 37.0128 44.4971 36.4779C44.4603 36.1095 44.4603 36.1095 44.8019 35.8898C46.5468 35.1598 48.4021 35.535 50.3454 34.9714C50.7054 34.9359 50.7238 35.1201 50.5622 35.3221C50.4742 36.2609 50.5846 37.3662 50.4966 38.305C50.515 38.4892 50.3534 38.6912 50.7318 38.8399C51.0918 38.8044 50.8934 38.6379 51.055 38.436C50.9998 37.8833 51.1246 37.3129 51.0694 36.7603C51.0838 35.0847 51.0838 35.0847 52.5607 35.3112C52.7407 35.2934 52.9391 35.4599 53.1191 35.4422C53.8576 35.5554 53.8944 35.9238 53.7696 36.4942C53.5384 37.8192 53.2888 38.9599 53.0576 40.2849C53.076 40.4691 52.9144 40.6711 53.0944 40.6533C53.2928 40.8198 53.4544 40.6178 53.436 40.4336C53.4176 40.2494 53.5792 40.0475 53.5608 39.8633C53.792 38.5383 54.0232 37.2133 54.0928 36.0903C54.0744 35.9061 54.0376 35.5377 54.416 35.6864C54.9744 35.8174 55.6944 35.7464 56.2713 36.0616C57.0465 36.5433 57.8034 36.8408 58.7402 37.1205C59.1186 37.2692 59.137 37.4534 58.9938 37.8396C58.7258 38.7961 58.4578 39.7527 58.2082 40.8934C57.9586 42.0342 57.529 43.1927 57.0994 44.3512C56.9378 44.5531 56.6146 44.957 56.813 45.1235C57.1914 45.2722 57.3162 44.7019 57.4778 44.4999C57.6394 44.298 57.621 44.1138 57.7826 43.9118C58.3554 42.3671 58.7482 40.8402 59.3211 39.2955C59.4459 38.7252 59.9491 38.3035 59.6955 37.5844C60.8307 38.0306 61.9476 38.2926 63.0828 38.7388C63.4613 38.8875 63.8397 39.0362 64.2181 39.185C64.5965 39.3337 64.7949 39.5002 64.4717 39.9041C63.9869 40.5099 63.6821 41.0981 63.3589 41.502C63.1973 41.7039 63.0357 41.9059 63.2341 42.0723C63.4325 42.2388 63.5941 42.0369 63.7557 41.8349C64.0605 41.2468 64.5637 40.8251 64.8501 40.0528C64.9933 39.6666 65.335 39.4469 65.5518 39.7976C65.967 40.3148 66.5254 40.4458 67.0655 40.3926C67.9655 40.3038 68.2191 41.023 68.796 41.3382C69.3912 41.8376 69.5016 42.9429 69.2152 43.7152C68.4992 45.646 67.1695 46.8932 66.0383 48.3069C65.0687 49.5186 64.1358 51.0988 62.7694 51.9775C61.7445 52.6366 60.9181 53.4622 59.8932 54.1213L59.7132 54.139C59.6948 53.9548 59.6948 53.9548 59.8748 53.937C59.9996 53.3667 60.5213 53.1292 60.8077 52.3569C60.0876 52.4279 59.6028 53.0337 59.478 53.6041C59.3532 54.1745 58.9932 54.21 58.6148 54.0612C57.4795 53.615 57.4795 53.615 58.0891 52.4388C58.2507 52.2368 58.4123 52.0349 58.3939 51.8507C59.0036 50.6744 59.7932 49.4805 60.006 47.9713C59.9876 47.7871 60.1492 47.5851 59.9692 47.6029C59.7708 47.4364 59.6276 47.8225 59.646 48.0067C59.5028 48.3929 59.378 48.9633 59.2164 49.1653C58.2283 50.1928 57.8355 51.7197 57.2075 52.7117C56.9027 53.2998 56.7043 53.1334 56.1458 53.0024C54.4337 52.241 52.8465 50.9092 50.9728 50.3498C50.5943 50.201 50.5759 50.0168 50.5575 49.8326C50.6639 49.078 50.5903 48.3412 50.4983 47.4201C50.4799 47.2359 50.8215 47.0162 50.4431 46.8675C50.0831 46.9029 50.1199 47.2714 50.1383 47.4556C50.2119 48.1924 50.1055 48.947 50.1607 49.4997C50.2343 50.2365 50.0359 50.0701 49.4959 50.1233C48.7574 50.01 47.839 49.9145 47.119 49.9855C46.5789 50.0387 46.2373 50.2584 45.9653 49.3551C45.8405 49.9254 45.6789 50.1274 45.1573 50.3648C44.0956 50.6555 43.0524 51.1304 42.2075 51.7717C41.5243 52.2111 41.1275 51.8782 40.8923 51.3433C40.6938 51.1768 40.657 50.8084 40.6386 50.6242C40.4402 50.4577 40.4034 50.0893 40.0434 50.1247C40.3154 51.0281 40.569 51.7472 41.3627 52.413C40.8595 52.8347 40.1394 52.9057 39.8714 53.8622C39.7466 54.4326 39.2434 54.8542 38.9386 55.4424C38.6338 56.0305 38.2738 56.066 37.6969 55.7508C37.3185 55.602 37.1017 55.2513 36.7233 55.1026C35.9296 54.4367 35.1176 53.5866 34.1439 52.9385C31.6382 51.5112 29.7421 48.9077 27.3795 47.0942C26.9827 46.7613 27.3243 46.5416 27.4675 46.1554C27.6107 45.7693 27.8092 45.9357 28.0076 46.1022C28.8012 46.7681 29.5949 47.434 30.3701 47.9156C30.5685 48.0821 30.7669 48.2486 30.9285 48.0466C31.6486 47.9757 31.4502 47.8092 31.4318 47.625C31.4318 47.625 31.2517 47.6427 31.4318 47.625C31.4133 47.4408 31.4318 47.625 31.4318 47.625ZM49.1295 55.5541C49.4895 55.5186 50.0296 55.4654 50.408 55.6142C52.1201 56.3756 54.137 56.5488 55.8491 57.3102C56.9843 57.7564 58.0828 57.8342 59.3612 57.8942C61.0181 58.103 62.3886 59.0841 63.5791 60.0829C63.7775 60.2494 63.7959 60.4336 63.8143 60.6178C64.52 62.2225 65.064 64.0291 65.7696 65.6338C66.7105 67.7734 66.9498 70.1682 67.369 72.5452C67.4242 73.0978 67.4978 73.8347 67.373 74.4051C67.3402 75.8965 66.3338 76.7398 65.5442 77.9338C64.5745 79.1455 63.4065 80.1907 61.8232 80.7188C61.3016 80.9563 60.7063 80.4569 60.3831 80.8608C59.5751 81.8705 58.4951 81.977 57.6318 82.4341C56.607 83.0932 55.5269 83.1996 54.4101 82.9376C53.4732 82.6579 52.3931 82.7644 51.5299 83.2215C49.965 83.9338 48.3082 83.7251 46.6881 83.8847C44.3664 84.2996 42.1142 83.5914 39.8805 83.0674C39.5021 82.9187 38.9621 82.9719 38.7453 82.6212C37.698 81.2362 36.8307 79.8335 35.9635 78.4308C35.5115 77.5452 35.2394 76.6419 35.3274 75.7031C35.3602 74.2116 35.9698 73.0354 36.0026 71.5439C36.2666 68.7275 36.8906 65.8756 36.9746 63.077C37.077 60.4625 38.3698 58.8469 40.6363 57.8794C43.586 56.4725 46.4662 56.1887 49.1295 55.5541ZM52.5696 122.743C53.2528 122.303 54.0096 122.601 54.6929 122.161C55.9161 121.669 57.3378 121.343 58.5794 121.034C60.7211 120.637 62.6501 121.749 64.7038 122.291C65.2622 122.422 65.839 122.737 66.4159 123.052C68.7784 124.866 71.1593 126.863 73.0555 129.467C73.8859 130.501 74.7532 131.904 73.8019 133.3L73.8203 133.484C73.4091 134.827 73.8796 135.897 74.1884 137.168C74.5156 138.624 74.6628 140.098 73.8916 141.476C73.7484 141.862 73.5868 142.064 73.2636 142.468C72.7972 143.258 71.0339 143.804 70.4387 143.305C69.4466 142.472 68.3113 142.026 67.1761 141.58C64.1487 140.39 60.9597 139.402 57.5396 139.739C56.9996 139.793 56.4411 139.662 56.0811 139.697C54.9642 139.435 54.009 138.971 52.9105 138.893C51.0736 138.702 49.3432 137.757 47.6679 137.364C48.6743 136.52 50.6176 135.957 51.8961 136.017C52.2561 135.981 52.6529 136.314 52.7777 135.744C52.9025 135.174 52.3809 135.411 52.0025 135.262C50.544 135.22 48.9423 135.564 47.3222 135.724C45.1621 135.936 43.3292 137.605 41.0771 136.897C40.8971 136.915 40.8971 136.915 40.7171 136.933C39.097 137.092 37.3337 137.638 35.6585 137.245C34.92 137.132 34.5232 136.799 34.4312 135.878C34.4088 133.834 35.1248 131.903 36.2192 130.121C38.2649 126.943 41.3946 125.518 44.5612 124.462C44.9028 124.242 45.4612 124.373 45.8212 124.338C47.4781 124.547 49.2598 124.185 50.8799 124.025C52.6616 123.664 54.4985 123.855 56.3722 124.414C57.8674 124.825 59.3259 124.867 60.946 124.707C61.126 124.69 61.306 124.672 61.4676 124.47C61.4492 124.286 61.2508 124.119 61.2508 124.119C60.3508 124.208 59.5571 123.542 58.6571 123.631C57.0186 123.606 55.5049 123.011 53.8664 122.987C53.308 122.856 52.768 122.909 52.5696 122.743ZM69.1949 92.6421C68.7837 93.9848 68.7325 95.292 68.1413 96.6525C67.3885 98.2149 65.8236 98.9272 64.6555 99.9724C63.8107 100.614 62.9291 100.887 61.8306 100.809C60.7321 100.731 59.8321 100.82 58.7521 100.926C57.8704 101.199 57.0072 101.656 56.0887 101.561C54.2702 101.554 52.687 102.082 50.8869 102.26C50.1668 102.331 49.41 102.033 48.7084 102.288C47.6467 102.579 46.7283 102.483 45.7546 101.835C44.1857 100.688 42.2936 99.944 41.5144 97.6025C41.0255 96.3485 40.3567 95.1122 40.0294 93.6563C39.555 90.7266 41.0054 87.0491 43.3967 85.5113C43.8999 85.0896 44.6016 84.8345 44.98 84.9832C45.3584 85.1319 45.7368 85.2807 45.8984 85.0787C47.1217 84.5861 48.3818 84.4619 49.605 83.9693C50.9899 83.2747 52.6284 83.2993 53.9252 83.5435C55.4021 83.77 56.8238 83.4439 58.3007 83.6704C59.2191 83.7659 60.3176 83.8436 61.416 83.9214C62.136 83.8504 62.3897 84.5696 63.1281 84.6828C65.0018 85.2422 66.4275 86.776 67.5116 88.5294C67.7468 89.0643 67.802 89.6169 68.2172 90.1341C68.6876 91.2039 68.9413 91.923 69.1949 92.6421ZM78.3975 152.008C77.5527 152.649 76.8143 152.536 76.039 152.054C73.3165 150.276 70.2891 149.086 67.4234 147.694C65.8913 146.915 64.1792 146.154 62.3423 145.963C60.3254 145.79 58.1653 146.003 56.1852 146.198C53.6651 146.446 51.6154 147.764 50.1977 149.95C48.1152 152.76 46.8264 156.235 46.276 159.824C45.7768 162.106 45.656 164.536 45.5353 166.966C45.6089 167.703 45.2304 167.554 44.6904 167.607C44.1504 167.661 44.2936 167.274 44.2568 166.906C44.2016 166.353 44.308 165.599 44.4328 165.028C44.5576 164.458 44.6824 163.888 44.8072 163.317C44.7296 160.721 45.2103 158.255 45.5111 155.807C45.6871 153.929 46.0431 152.034 47.1744 150.62C48.7536 148.232 50.5497 146.195 53.1946 145.376C54.9579 144.83 56.5228 144.118 58.5213 144.107C60.1598 144.132 61.9598 143.954 63.4735 144.549C65.3472 145.109 67.2209 145.668 69.1314 146.596C70.6635 147.375 72.5004 147.566 73.8893 148.731C75.1166 150.099 76.8287 150.86 78.3975 152.008ZM80.664 151.04C79.6392 151.699 78.7208 151.604 77.9271 150.938C77.7287 150.771 77.5487 150.789 77.5303 150.605C75.0245 149.178 73.0036 147.144 70.1931 146.305C67.0041 145.317 63.9399 143.759 60.6446 143.526C56.0707 143.233 51.8057 144.211 48.5184 147.697C47.692 148.523 46.7039 149.55 46.2743 150.709C45.2719 153.412 44.8463 156.43 44.4207 159.449C44.2263 161.142 44.392 162.8 44.0176 164.511C43.7311 165.284 43.6247 166.038 43.7168 166.959C43.7904 167.696 43.2503 167.749 42.8903 167.785C42.3503 167.838 42.4751 167.268 42.4567 167.083C42.4383 166.899 42.4199 166.715 42.4015 166.531C42.5959 164.837 42.9703 163.126 42.6247 161.486C42.6063 161.302 42.5694 160.933 42.551 160.749C42.7966 157.749 43.2222 154.73 44.5847 151.992C45.0511 151.202 45.3191 150.245 45.6055 149.473C46.3399 147.726 47.8864 146.83 49.0176 145.416C50.0056 144.388 50.9937 143.361 52.2353 143.052C53.297 142.762 54.3771 142.655 55.4203 142.18C55.6003 142.163 55.6003 142.163 55.7803 142.145C57.4004 141.985 58.8773 142.212 60.3725 142.623C61.111 142.736 61.8862 143.217 62.6063 143.146C64.6232 143.32 66.3353 144.081 68.209 144.641C70.1011 145.384 72.1732 146.11 73.9037 147.056C76.391 148.299 78.5367 149.762 80.664 151.04ZM46.2196 33.7038C46.1459 32.967 46.0539 32.0459 45.8003 31.3268C45.5467 30.6077 45.4731 29.8708 45.4179 29.3182C45.557 27.0722 44.9762 24.8971 44.7554 22.6865C44.7145 20.4582 43.7737 18.3187 43.7144 15.9061C43.4384 13.1429 43.5408 10.5285 43.0847 7.78304C42.9743 6.67776 43.0439 5.55476 42.9335 4.44948C42.8415 3.52841 43.5983 3.82588 44.1199 3.58844C44.66 3.53522 44.5352 4.1056 44.5536 4.28981C44.5392 5.96547 44.7232 7.80758 44.8888 9.4655C44.9256 9.83393 44.944 10.0181 45.3041 9.98266C45.6641 9.94718 45.6273 9.57875 45.6089 9.39454C45.0464 7.40368 45.2224 5.52608 45.02 3.49974C45.56 3.44651 45.6152 3.99915 45.652 4.36758C45.5456 5.12217 45.6376 6.04324 45.7113 6.78009C46.1673 9.52554 46.0649 12.14 46.521 14.8854C46.977 17.6309 47.0731 20.4118 47.3491 23.175C47.3675 23.3592 47.5659 23.5257 47.2243 23.7454C47.1875 23.377 47.1507 23.0085 46.7907 23.044C46.6107 23.0618 46.4491 23.2637 46.6659 23.6144C47.1731 25.0526 46.9603 26.5618 47.2875 28.0178C47.6148 29.4737 47.9236 30.7455 48.0708 32.2192C48.0892 32.4034 47.7844 32.9915 48.4861 32.7363C48.4861 32.7363 48.8133 34.1923 48.6333 34.21C48.4717 34.412 46.9764 34.0013 46.958 33.817C46.4876 32.7473 46.3996 33.6861 46.2196 33.7038ZM49.5834 165.637C49.8698 164.865 50.1563 164.092 50.4427 163.32C51.4083 160.248 52.5723 157.343 54.6916 154.902C55.1764 154.296 55.8412 153.673 56.7045 153.215C59.151 152.23 61.6159 151.429 64.3896 151.9C65.8665 152.126 67.4866 151.967 68.9819 152.378C71.0356 152.919 73.2141 152.891 75.1798 154.371C74.6766 154.793 73.9566 154.864 73.2181 154.75C71.0028 154.411 68.6075 154.089 66.3554 153.38C64.4817 152.821 62.5016 153.016 60.5583 153.58C57.0317 154.671 54.7508 157.315 53.102 160.826C52.654 161.8 52.5844 162.923 52.3348 164.064C52.1916 164.45 52.2284 164.818 51.8683 164.854C50.9867 165.127 50.4651 165.364 49.5834 165.637ZM59.8442 106.399C60.7258 106.127 61.5195 106.792 62.1147 107.292C62.7283 107.975 63.522 108.641 63.974 109.527C64.4628 110.781 64.1764 111.553 62.9164 111.677C62.1963 111.748 61.2963 111.837 60.7931 112.259C59.9298 112.716 59.533 112.383 58.9378 111.884C58.3425 111.384 57.7657 111.069 57.1889 110.754C57.0089 110.771 56.8105 110.605 56.8289 110.789C56.6672 110.991 56.8657 111.158 57.0457 111.14C58.1625 111.402 57.6593 111.824 57.1745 112.429C56.8513 112.833 56.5281 113.237 56.5833 113.79C56.4401 114.176 56.4953 114.729 56.5321 115.097C56.5873 115.65 56.2457 115.869 55.6872 115.738C54.9304 115.441 54.192 115.328 53.4351 115.03C51.9214 114.435 51.9214 114.435 52.4943 112.891C52.6559 112.689 52.4206 112.154 52.7807 112.118C53.8791 112.196 54.6872 111.186 55.7488 110.896C56.9905 110.587 57.6369 109.779 57.8681 108.454C57.7761 107.533 58.7641 106.506 59.8442 106.399ZM47.8796 110.369C48.0228 109.983 48.3644 109.763 48.526 109.561C49.0108 108.955 49.7125 108.7 49.6205 107.779C49.51 106.674 49.5612 105.367 49.0908 104.297C48.874 103.946 49.234 103.911 49.414 103.893C50.4389 103.234 51.7357 103.478 52.7974 103.187L52.9774 103.17C53.5542 103.485 53.7935 105.88 53.4518 106.099C52.9486 106.521 52.9854 106.889 52.8606 107.46C52.7542 108.214 52.8462 109.135 52.5598 109.908C52.4166 110.294 52.0934 110.698 52.4718 110.847C52.8503 110.995 52.7766 110.258 52.9383 110.057C53.4047 109.266 52.9342 108.197 53.2206 107.424C53.327 106.67 53.6502 106.266 54.2087 106.397C55.3071 106.475 56.424 106.737 57.3608 107.016C57.5593 107.183 57.5593 107.183 57.5777 107.367C57.4529 107.937 57.1664 108.71 57.0416 109.28C56.9353 110.035 56.5936 110.254 55.892 110.51C55.1904 110.765 54.3087 111.038 53.6439 111.661C53.1223 111.899 52.7623 111.934 52.2038 111.803C51.2486 111.339 50.2749 110.691 48.9965 110.631C48.798 110.465 48.438 110.5 47.8796 110.369ZM41.577 118.245C41.2497 116.789 41.1209 115.5 40.9737 114.026C40.9369 113.658 40.9001 113.289 41.2785 113.438C41.8553 113.753 42.3586 113.332 42.9722 114.015C43.1706 114.182 44.4123 113.873 44.5555 113.487C44.6435 112.548 45.2019 112.679 45.7419 112.626C46.1019 112.591 46.642 112.537 46.9836 112.318C47.3252 112.098 47.3436 112.282 47.542 112.449C48.5525 113.465 48.6813 114.755 48.9901 116.026C49.0269 116.395 49.0821 116.947 48.3621 117.018C47.6421 117.089 46.8156 117.915 46.7276 118.854C46.746 119.038 46.5844 119.24 46.4228 119.442C45.49 121.022 44.0499 121.164 42.6283 121.49C42.2682 121.526 42.0698 121.359 42.033 120.991C41.9042 119.701 41.4154 118.447 42.5834 117.402C42.5834 117.402 42.5834 117.402 42.745 117.2C42.9946 116.059 43.8763 115.786 44.7579 115.513C45.2979 115.46 45.7643 114.67 45.5291 114.135C45.5107 113.951 45.4923 113.767 45.3123 113.785C45.1323 113.802 45.1507 113.986 45.1691 114.171C45.2243 114.723 44.9011 115.127 44.3611 115.18C43.2994 115.471 42.0762 115.964 41.8634 117.473C41.9002 117.841 41.757 118.227 41.577 118.245ZM72.2301 155.778C71.5468 156.217 70.8452 156.472 70.162 156.912C69.982 156.93 69.802 156.947 69.802 156.947C69.2251 156.632 68.4867 156.519 67.9283 156.388C65.1545 155.917 62.4176 155.815 60.0263 157.353C59.163 157.81 58.3182 158.451 57.6718 159.259C56.5405 160.673 55.8245 162.604 54.8917 164.184C54.7485 164.57 53.7052 165.045 53.3268 164.896C53.1284 164.73 53.11 164.545 53.29 164.528C54.2372 161.272 55.2028 158.2 58.2774 156.223C60.5071 154.887 62.9536 153.902 65.5473 154.39C67.4026 154.765 69.2579 155.141 71.1132 155.516C71.2932 155.498 71.6716 155.647 72.2301 155.778ZM70.7183 106.072C70.7919 106.809 69.4991 108.424 68.959 108.478C68.779 108.495 68.779 108.495 68.7606 108.311C68.147 107.627 67.3022 108.269 67.1405 108.471C66.5125 109.463 65.3957 109.201 64.7308 109.824C64.5692 110.026 64.3708 109.86 64.3524 109.676C64.062 108.588 63.0699 107.756 62.2579 106.906C62.0411 106.555 62.0227 106.371 62.3643 106.151C62.6875 105.747 63.1907 105.326 63.3523 105.124C63.8003 104.149 64.4468 103.342 65.3836 103.621C66.3205 103.901 66.6437 103.497 66.9301 102.725C67.0549 102.154 67.2165 101.952 67.8117 102.452C68.0285 102.802 68.3702 102.583 68.7118 102.363C68.8734 102.161 69.2334 102.126 69.2702 102.494C69.759 103.748 70.2479 105.002 70.7183 106.072ZM55.5749 163.744C58.0646 157.732 62.0024 155.298 69.2803 157.185C69.2987 157.369 69.1187 157.387 68.9387 157.404C67.2123 158.319 65.4858 159.233 63.7409 159.963C62.6976 160.438 61.456 160.746 60.6112 161.388C59.1199 162.837 57.375 163.567 55.5749 163.744ZM61.28 162.624C61.2472 164.115 61.9345 165.536 61.7401 167.229C61.7257 168.905 61.5313 170.598 61.8769 172.238C61.9137 172.607 61.7889 173.177 62.1673 173.326C62.7442 173.641 62.601 174.027 62.4762 174.598C62.513 174.966 62.3514 175.168 62.3882 175.537C62.9322 177.343 62.9362 179.203 63.2819 180.843C63.4107 182.133 63.5395 183.422 62.9483 184.783C62.9259 182.739 62.2018 180.95 62.3778 179.072C62.3226 178.519 62.4474 177.949 62.0322 177.432C62.0138 177.248 61.8154 177.081 61.6354 177.099C61.4554 177.117 61.4738 177.301 61.6722 177.467C61.9074 178.002 61.981 178.739 61.8562 179.31C61.8602 181.169 62.2058 182.81 62.5515 184.45C62.6067 185.002 62.6619 185.555 62.1587 185.977C61.6882 184.907 61.4162 184.004 61.4858 182.881C61.5738 181.942 61.5002 181.205 61.0482 180.319C60.5409 178.881 60.3753 177.223 60.0297 175.583C59.6656 173.759 58.9232 171.785 59.8192 169.837C59.9624 169.451 59.9256 169.082 59.8888 168.714C60.0728 170.556 60.2568 172.398 60.8009 174.205C60.8193 174.389 60.6761 174.775 61.0361 174.74C61.3961 174.704 61.3593 174.336 61.3409 174.152C61.3225 173.967 61.3041 173.783 61.3041 173.783C60.9033 171.59 60.7008 169.564 60.66 167.336C60.6416 167.151 60.5864 166.599 60.5864 166.599C60.0096 166.284 60.1344 165.713 60.0976 165.345C60.0608 164.976 60.024 164.608 59.9871 164.24C59.7335 163.52 59.8583 162.95 60.7584 162.861C61.012 163.58 60.9056 164.335 61.1592 165.054C61.2656 164.3 60.9936 163.396 61.28 162.624ZM64.338 111.351C63.9084 112.51 64.5221 113.193 65.2973 113.675C65.6757 113.824 65.8925 114.175 66.1094 114.525C66.3078 114.692 66.5062 114.858 66.003 115.28C65.3197 115.719 65.1949 116.29 65.6286 116.991C65.8454 117.342 66.0806 117.877 66.2974 118.227C66.7862 119.481 66.6246 119.683 65.3278 119.439C64.5893 119.326 63.6709 119.23 62.9692 119.485C62.4476 119.723 61.926 119.96 62.374 118.986C62.5356 118.784 62.3372 118.618 62.1204 118.267C61.6868 117.565 61.2347 116.68 60.6395 116.18C59.8275 115.33 59.9154 114.392 60.0034 113.453C60.2714 112.496 61.0099 112.609 61.5315 112.372C62.6116 112.266 63.71 112.343 64.338 111.351ZM56.1473 120.344C55.9673 120.361 55.6073 120.397 55.5889 120.213C54.9936 119.713 55.1696 117.836 55.8529 117.396C56.1945 117.177 56.5177 116.773 56.6609 116.387C56.9473 115.614 56.8553 114.693 56.9617 113.939C57.0497 113 57.7145 112.376 58.2177 111.955C58.3793 111.753 58.8314 112.638 59.3898 112.769C59.7682 112.918 59.9666 113.084 59.8418 113.655C59.6106 114.98 60.0995 116.234 61.0915 117.066C61.4884 117.399 61.742 118.118 62.1572 118.635C62.374 118.986 62.2308 119.372 62.0876 119.758C61.9444 120.144 61.5476 119.812 61.3676 119.829C60.2691 119.751 59.3507 119.656 58.2706 119.762C57.9106 119.798 57.5138 119.465 57.1906 119.869C56.8673 120.273 56.4889 120.124 56.1473 120.344ZM68.9159 113.505C68.2286 112.084 68.8199 110.724 68.871 109.416C68.8526 109.232 68.8342 109.048 69.1759 108.828C69.8959 108.757 70.2007 108.169 70.5055 107.581C70.8287 107.177 71.1335 106.589 71.7472 107.273C71.964 107.623 72.504 107.57 72.6656 107.368C73.1872 107.131 73.224 107.499 73.4409 107.85C73.7681 109.306 73.2321 111.219 72.0456 112.08C71.2008 112.721 70.5728 113.713 69.2575 113.285C69.2575 113.285 69.0959 113.487 68.9159 113.505ZM55.2289 120.248C54.5088 120.319 53.9872 120.557 53.4472 120.61C52.9072 120.663 52.1687 120.55 51.6287 120.603C50.9087 120.674 51.0519 120.288 51.1951 119.902C51.4999 119.314 51.4631 118.945 51.0478 118.428C50.8494 118.262 50.651 118.095 50.4526 117.929C50.0558 117.596 49.8206 117.061 49.5853 116.526C49.5301 115.973 50.0886 116.104 50.4302 115.884C50.5918 115.683 50.9334 115.463 51.095 115.261C51.5982 114.839 51.9582 114.804 52.5351 115.119C53.5087 115.767 54.644 116.213 56.2825 116.238C55.1328 117.467 54.1632 118.679 55.2289 120.248ZM73.7169 110.613C73.8825 112.271 73.8681 113.947 73.8354 115.438C73.8722 115.806 73.7106 116.008 73.5489 116.21C72.9025 117.018 71.9841 116.923 71.1208 117.38C70.5992 117.617 69.7176 117.89 69.4271 116.803C69.4087 116.618 69.0303 116.47 69.0119 116.285C68.5967 115.768 67.8767 115.839 67.4614 115.322C67.8215 115.287 67.7846 114.918 67.9463 114.716C68.4495 114.295 68.9159 113.505 69.6727 113.802C70.5912 113.898 71.1312 113.844 71.5792 112.87C71.5608 112.686 71.7408 112.668 71.9208 112.65C72.7841 112.193 73.4489 111.57 73.7169 110.613ZM44.1218 112.786C44.0666 112.233 44.2098 111.847 44.353 111.461C44.621 110.504 44.709 109.565 44.0954 108.882C43.2833 108.032 42.1481 107.585 41.4976 106.533C41.4976 106.533 41.2992 106.367 41.1192 106.385C40.7592 106.42 40.5792 106.438 40.524 105.885C40.4872 105.517 40.8288 105.297 41.0088 105.279C41.5304 105.042 42.0705 104.989 42.7721 104.734C43.4737 104.478 44.1754 104.223 44.4658 105.311C44.4842 105.495 44.6826 105.661 44.881 105.828C45.3146 106.529 46.2515 106.809 46.3619 107.914C46.4539 108.835 46.9059 109.721 46.4579 110.695C46.2963 110.897 46.4947 111.064 46.5131 111.248C46.9284 111.765 46.5868 111.985 46.2267 112.02C45.5067 112.091 44.7867 112.162 44.1218 112.786ZM42.6835 122.043C43.4219 122.156 43.9067 121.55 44.4467 121.497C45.5268 121.39 46.838 119.959 47.2677 118.801C47.3741 118.046 47.8773 117.624 48.5973 117.553C49.3173 117.482 50.471 118.113 50.9046 118.814C51.1215 119.165 50.7471 120.876 50.4054 121.096C49.3622 121.571 48.1573 122.247 47.1141 122.722C45.5492 123.435 44.0907 123.392 42.6835 122.043ZM40.4544 107.008C40.8144 106.973 41.1744 106.937 41.2112 107.306C41.6449 108.007 42.4201 108.489 43.1954 108.97C43.7722 109.286 44.0074 109.821 44.081 110.557C44.173 111.478 43.5082 112.102 43.6002 113.023C43.6002 113.023 43.4386 113.225 43.2586 113.243C42.8802 113.094 42.5386 113.314 42.1785 113.349C41.2785 113.438 40.4849 112.772 40.3928 111.851C40.2272 110.193 40.8 108.648 40.4544 107.008ZM55.2519 105.922C55.7551 105.5 56.2768 105.263 56.6 104.859C57.6248 104.2 59.0281 103.69 59.4025 101.978C59.3841 101.794 59.5457 101.592 59.6889 101.206C60.3577 102.442 61.1882 103.477 62.0187 104.511C62.2355 104.862 62.6139 105.01 62.2907 105.414C61.9675 105.818 61.8427 106.389 61.0858 106.091C60.329 105.794 59.7521 105.478 58.8889 105.936C58.1873 106.191 57.324 106.648 56.5488 106.166C56.3688 106.184 55.9904 106.035 55.2519 105.922ZM47.1596 110.44C47.086 109.703 46.8323 108.984 46.7587 108.247C46.6851 107.51 46.4315 106.791 45.8363 106.292C45.4394 105.959 45.0242 105.442 44.8074 105.091C44.609 104.925 44.3922 104.574 44.5538 104.372C44.7154 104.17 45.057 103.95 45.2554 104.117C45.6154 104.081 45.8506 104.616 46.1371 103.844C46.2619 103.273 48.4956 103.797 48.7492 104.517C49.2196 105.586 48.97 106.727 49.2604 107.815C49.2973 108.183 48.9372 108.219 48.794 108.605C48.1292 109.228 47.4276 109.483 47.1596 110.44ZM68.3391 113.189C68.5927 113.908 68.0526 113.962 67.7294 114.366C67.083 115.173 66.903 115.191 66.271 114.323C66.0726 114.157 66.0541 113.973 65.8557 113.806C65.0621 113.14 64.4669 112.641 64.6981 111.316C64.8045 110.561 65.1277 110.157 65.6493 109.92C66.1709 109.682 66.7293 109.813 67.0341 109.225C67.3574 108.821 67.519 108.62 67.9158 108.952C68.4742 109.083 68.331 109.47 68.1878 109.856C68.2982 110.961 67.8686 112.12 68.3391 113.189ZM48.1148 110.904C49.3933 110.964 50.6717 111.024 51.6638 111.856C51.8622 112.023 52.2406 112.172 52.0974 112.558C51.8478 113.698 51.7782 114.822 50.5734 115.498C49.7101 115.955 49.1701 116.009 49.0965 115.272C48.7877 114 48.4973 112.913 47.6668 111.878C47.45 111.528 47.7548 110.939 48.1148 110.904ZM67.3781 101.75C67.0549 102.154 66.9117 102.54 66.5885 102.944C66.4269 103.146 66.2837 103.533 65.9052 103.384C64.59 102.955 63.9435 103.763 63.1171 104.589C62.9555 104.791 62.7939 104.993 62.5771 104.642C61.765 103.792 60.9346 102.758 60.4641 101.688C62.8043 101.457 64.9828 101.428 67.3781 101.75ZM59.2041 101.812C58.7377 102.602 58.6497 103.541 57.948 103.796C57.0664 104.069 56.24 104.894 55.5567 105.334C55.2151 105.554 55.0535 105.755 54.6935 105.791C54.3519 106.011 53.9735 105.862 54.0983 105.292C54.0431 104.739 54.1495 103.984 53.7342 103.467C53.319 102.95 53.6606 102.73 54.0206 102.695C54.9207 102.606 56.0007 102.5 56.9008 102.411C57.6024 102.156 58.2856 101.716 59.2041 101.812ZM72.3993 117.44C71.0696 118.687 69.3064 119.233 67.6863 119.393C67.5063 119.41 67.1647 119.63 67.1095 119.077C67.0174 118.156 66.5838 117.455 66.1502 116.754C65.9334 116.403 65.8966 116.034 66.2198 115.631C66.543 115.227 66.903 115.191 67.2998 115.524C67.4982 115.691 67.8767 115.839 68.0751 116.006C68.4719 116.339 69.2103 116.452 69.2839 117.189C69.5376 117.908 69.8976 117.872 70.4376 117.819C71.176 117.932 71.6977 117.695 72.3993 117.44ZM73.2384 105.824C73.0952 106.21 73.5104 106.727 73.1688 106.947C72.8272 107.166 72.4672 107.202 72.0888 107.053C71.7104 106.904 71.5119 106.738 71.2951 106.387C70.8063 105.133 70.3175 103.879 69.8286 102.625C69.8102 102.441 69.6118 102.274 69.9718 102.239C70.5118 102.186 71.0335 101.948 71.4119 102.097C71.9703 102.228 72.7456 102.71 72.8376 103.631C72.8928 104.183 72.9664 104.92 73.2384 105.824ZM75.8453 137.377C76.8005 137.841 77.7558 138.305 78.8358 138.199C79.5559 138.128 80.1143 138.259 80.8343 138.188C81.0143 138.17 81.1943 138.152 81.2128 138.336C81.2496 138.705 80.5847 139.328 80.2431 139.548C79.1815 139.839 78.0278 139.208 76.9109 138.946C76.3709 139 75.6141 138.702 75.8453 137.377ZM58.4572 56.1231C58.1524 56.7112 57.9908 56.9131 57.6308 56.9486C55.6139 56.7753 53.6849 55.6633 51.6312 55.1216C51.2528 54.9728 51.396 54.5867 51.3776 54.4024C51.3408 54.034 51.7192 54.1827 51.9176 54.3492C52.6745 54.6467 53.4313 54.9441 54.1882 55.2416C55.5034 55.6701 56.7307 57.0373 58.4572 56.1231ZM42.2892 56.2283C43.6372 55.1653 44.8421 54.4885 46.0653 53.9959C46.2454 53.9781 46.7486 53.5565 46.8038 54.1091C46.859 54.6618 47.2742 55.1789 46.3926 55.4518C45.1325 55.576 43.8909 55.8844 42.2892 56.2283ZM49.8783 52.1319L50.0583 52.1141C50.3119 52.8332 50.224 53.772 50.4776 54.4911C50.496 54.6754 50.496 54.6754 50.316 54.6931C49.7759 54.7463 49.0559 54.8173 48.6775 54.6686C48.2991 54.5198 48.6039 53.9317 48.5671 53.5633C48.5303 53.1949 48.4935 52.8264 48.6183 52.2561C48.5999 52.0718 48.3646 51.5369 48.9231 51.6679C49.2831 51.6324 49.3199 52.0009 49.5367 52.3516C49.5919 52.9042 49.6471 53.4568 49.7023 54.0095C50.0255 53.6056 49.9887 53.2371 49.9703 53.0529C49.7719 52.8865 49.7351 52.518 49.8783 52.1319ZM59.672 168.363C59.5063 166.705 58.9807 165.083 59.1751 163.389C59.7191 165.196 59.7048 166.872 59.672 168.363ZM48.5726 122.765C50.7839 121.244 51.6655 120.971 53.1608 121.382C51.7943 122.261 49.9574 122.07 48.5726 122.765ZM47.9758 54.9237C47.3438 54.0559 47.2702 53.319 47.3582 52.3802C47.3398 52.196 47.3214 52.0118 47.5014 51.9941C47.8614 51.9586 47.7182 52.3448 47.7366 52.529C48.1702 53.2303 48.0638 53.9849 47.9758 54.9237ZM60.6881 180.355C61.1586 181.425 61.269 182.53 61.1994 183.653C60.549 182.601 60.9786 181.442 60.6881 180.355ZM69.0166 101.775C68.675 101.995 68.3517 102.399 67.9733 102.25C67.9733 102.25 67.7749 102.083 67.9365 101.881C68.2597 101.477 68.6566 101.81 69.0166 101.775ZM30.0245 46.2755C30.4029 46.4242 30.4213 46.6084 30.6381 46.9591C30.4397 46.7926 30.0797 46.8281 30.0245 46.2755Z" fill="#040404"/>
<path d="M29.7526 46.5419C29.6272 47.1149 29.9889 47.0792 30.3691 47.2286C30.3507 47.0435 30.1328 46.6913 29.7526 46.5419Z" fill="#040404"/>
<path d="M74.4141 151.568C74.6144 151.736 74.7961 151.718 74.9964 151.887C74.9964 151.887 74.9964 151.887 75.1596 151.682C74.7961 151.718 74.5958 151.55 74.4141 151.568Z" fill="#040404"/>
<path d="M75.197 152.051L74.9972 151.883C74.9972 151.883 74.9972 151.883 74.8342 152.087C74.9972 151.883 75.0156 152.069 75.197 152.051Z" fill="#040404"/>
<path d="M72.1606 119.749L72.1422 119.564C72.1422 119.564 71.9612 119.582 72.1606 119.749C71.9612 119.582 71.9797 119.767 72.1606 119.749Z" fill="#040404"/>
<path d="M31.176 47.8857C31.176 47.8857 31.1579 47.7034 31.176 47.8857C30.9972 47.9034 31.176 47.8857 31.176 47.8857Z" fill="#040404"/>
<path d="M60.2679 54.2453C60.2679 54.2453 60.0869 54.2635 60.2679 54.2453C60.2861 54.43 60.2679 54.2453 60.2679 54.2453C60.4489 54.2272 60.2679 54.2453 60.2679 54.2453Z" fill="#040404"/>
<path d="M55.6327 79.4014C57.223 78.8709 59.0494 78.8776 60.6582 78.5321C61.3814 78.4608 61.8684 77.8522 62.3738 77.4287C64.6134 76.0867 65.495 73.9444 64.8378 71.0197C64.4907 69.3722 64.1436 67.7248 63.2541 66.1309C62.8186 65.4264 62.0769 65.3127 61.6599 64.7933C61.4606 64.6261 61.2983 64.8289 61.3168 65.014C61.59 65.9213 61.5015 66.8642 62.2802 67.348C62.6787 67.6824 62.7157 68.0525 62.7526 68.4225C63.2805 70.0521 63.8084 71.6817 63.0522 73.2511C62.4583 74.6176 61.9014 76.3542 60.7097 77.2191C59.518 78.084 58.2523 78.2088 56.8059 78.3514C56.6436 78.5543 56.1197 78.7928 55.6327 79.4014Z" fill="#040404"/>
<path d="M55.5521 73.9546C53.9123 74.1172 52.2911 74.4663 50.6699 74.8155C49.0486 75.1646 47.6466 75.8687 46.4823 77.1141C45.8091 77.7459 44.7159 77.8543 43.7864 77.7582C43.0577 77.8305 42.3474 78.0893 41.7267 77.3975C41.526 77.2291 41.5446 77.4156 41.3624 77.4336C41.3809 77.6201 41.3994 77.8066 41.5816 77.7885C42.5481 78.2577 43.5146 78.7268 44.6263 78.8049C46.2846 78.8288 47.3037 77.9743 48.4865 76.9154C49.4871 75.8745 50.9632 75.9164 52.2015 75.4169C53.0939 75.1401 54.0049 75.0497 54.8974 74.7729C55.0796 74.7548 55.4255 74.5321 55.5521 73.9546Z" fill="#040404"/>
<path d="M40.1914 71.1133C40.3721 71.0955 40.5343 70.8928 40.5159 70.7079C40.4051 69.5985 40.8732 68.8055 41.1422 67.8453C41.5735 66.6825 41.6434 65.5553 42.6536 64.7088C42.8158 64.5061 42.9595 64.1185 42.9226 63.7487C43.1547 62.4188 43.8035 61.6079 44.6146 60.5944C45.1012 59.9862 45.5878 59.3781 46.0929 58.9549C46.2551 58.7522 46.2367 58.5673 46.2182 58.3824C46.0191 58.2153 45.8384 58.2331 45.6762 58.4358C44.666 59.2823 43.4382 59.7767 42.6271 60.7903C41.9598 61.4163 41.6908 62.3764 41.6024 63.3187C41.6249 65.3704 40.7255 67.3263 40.1874 69.2465C40.0437 69.6341 39.9184 70.2066 39.7747 70.5942C39.8116 70.964 40.0108 71.1311 40.1914 71.1133Z" fill="#040404"/>
<path d="M48.8576 67.2751C49.4205 67.407 49.565 67.0176 49.8909 66.6103C50.7056 65.5921 51.5759 65.131 52.6831 65.2092C54.1348 65.0658 54.9495 64.0475 55.7273 62.6579C55.8902 62.4542 56.0347 62.0649 56.0162 61.8792C56.305 61.1005 56.8124 60.6752 57.5197 60.4178C57.7012 60.3999 57.8641 60.1962 57.6642 60.0284C57.6457 59.8427 57.4642 59.8607 57.3013 60.0643C55.8866 60.5792 54.8719 61.4296 54.0757 62.6335C53.2794 63.8375 52.0277 64.1487 50.9945 64.8134C50.3427 65.628 49.2724 65.9213 48.8576 67.2751Z" fill="#040404"/>
<path d="M64.8713 63.6315C64.6349 63.094 64.1807 62.204 63.7635 61.6844C62.5303 60.3104 61.1532 59.3246 59.5952 58.3566C59.4143 58.3744 59.3773 58.0042 59.2149 58.2072C59.0525 58.4101 59.2519 58.5774 59.4512 58.7447C59.9239 59.8197 60.8838 60.2859 61.6813 60.955C62.8775 61.9587 63.8929 62.9802 64.7458 64.2047C64.7643 64.3898 64.9452 64.372 65.1261 64.3541C64.9267 64.1868 65.0891 63.9839 64.8713 63.6315Z" fill="#040404"/>
<path d="M52.2384 69.8867C52.4202 69.8687 52.602 69.8507 52.9472 69.6286C54.1643 68.9444 55.6002 68.6144 56.8544 68.3023C58.1086 67.9903 58.2719 67.7862 58.3241 66.4656C58.3055 66.2795 58.4688 66.0754 58.287 66.0934L57.9234 66.1294C56.9622 67.54 55.5077 67.6839 54.0902 68.2C53.3815 68.4581 52.6913 68.9023 51.8193 69.3644C51.6375 69.3824 51.656 69.5685 51.656 69.5685C52.0566 69.9047 52.2384 69.8867 52.2384 69.8867Z" fill="#040404"/>
<path d="M44.4434 80.8389C43.5135 80.7427 42.6391 81.2064 41.6907 80.9236C41.3076 80.7732 40.7422 80.6409 40.5044 80.0992C40.4859 79.9126 40.2851 79.7441 40.1213 79.9488C39.9576 80.1535 40.1584 80.322 40.1584 80.322C40.7793 81.0141 41.3631 81.333 42.2745 81.2425C44.3167 81.4167 46.2847 80.8446 48.5091 81.0007C48.6914 80.9826 48.8922 81.1511 49.0374 80.7598C49.0004 80.3867 48.6359 80.4228 48.4536 80.4409C47.0138 80.7722 45.7194 80.7123 44.4434 80.8389Z" fill="#040404"/>
<path d="M38.1232 69.0762C38.8076 68.636 38.5719 68.1002 38.5166 67.5466C38.6008 64.7432 39.0639 62.0887 40.8446 59.8635C40.4656 59.7145 40.3037 59.9168 40.1418 60.1191C38.8467 61.7375 38.527 64.0051 38.1888 66.0882C38.1191 67.2131 38.2113 68.1358 38.1232 69.0762Z" fill="#040404"/>
<path d="M43.2502 74.3006C44.6689 73.7839 46.1061 73.4535 47.4692 72.378C47.7961 71.9695 48.3235 71.7292 48.8509 71.4888C49.0328 71.4708 49.2148 71.4528 49.0143 71.2846C48.9958 71.0983 48.8138 71.1163 48.6319 71.1344C48.2865 71.3567 47.941 71.579 47.5956 71.8013C46.4145 72.8587 44.9958 73.3754 43.5771 73.8921C43.2132 73.9281 42.8492 73.9642 42.6488 73.7959C42.4483 73.6277 42.4298 73.4414 42.2663 73.6457C42.1029 73.85 42.3034 74.0182 42.5038 74.1865C42.5224 74.3727 42.8863 74.3367 43.2502 74.3006Z" fill="#040404"/>
<path d="M61.4118 69.6707C61.3933 69.4857 61.2126 69.5035 61.2126 69.5035C61.0318 69.5214 61.0318 69.5214 61.0503 69.7063C61.0688 69.8913 60.888 69.9091 60.9065 70.0941C60.929 72.1466 59.4131 73.4168 58.4579 74.8185C58.2956 75.0213 58.2956 75.0213 58.1333 75.2241C57.9711 75.4269 57.7903 75.4447 58.008 75.7969C58.2072 75.964 58.3695 75.7612 58.351 75.5762C59.1624 74.5623 59.9738 73.5483 60.7667 72.3494C61.0543 71.5739 60.9435 70.464 61.4118 69.6707Z" fill="#040404"/>
<path d="M53.8956 59.1325C52.6951 58.1252 51.6056 58.2329 50.4271 59.2877C49.5747 59.935 48.9595 61.1219 48.3072 61.937C48.1441 62.1408 48.1626 62.3267 48.3442 62.3087C48.5443 62.4766 48.5258 62.2908 48.6889 62.087C49.1781 61.4756 49.6673 60.8642 50.1565 60.2528C51.1534 59.2159 52.1873 58.5507 53.5325 59.1684C53.551 59.3543 53.714 59.1505 53.8956 59.1325Z" fill="#040404"/>
<path d="M49.9645 80.4789C51.0735 80.5571 51.9082 79.7231 52.7799 79.2611C53.1249 79.0391 53.4699 78.8171 53.8149 78.5952C53.9966 78.5772 53.9781 78.3911 53.9596 78.2051C53.9411 78.0191 53.7593 78.0371 53.7778 78.2231C52.7799 79.2611 51.5447 79.759 50.3095 80.257C49.9275 80.1069 49.946 80.2929 49.9645 80.4789Z" fill="#040404"/>
<path d="M37.2247 76.9324C37.405 76.9146 37.405 76.9146 37.3866 76.7301C37.4563 75.605 38.2658 74.5934 38.1552 73.486C38.1367 73.3015 38.2986 73.0992 38.1183 73.1169C37.9195 72.9502 37.776 73.337 37.7945 73.5216C37.7248 74.6467 37.276 75.6227 37.0075 76.581C37.0259 76.7656 36.864 76.9679 37.2247 76.9324Z" fill="#040404"/>
<path d="M59.6286 130.772C59.6656 131.143 59.8471 131.125 60.0287 131.107C62.4999 131.989 64.7895 132.888 66.9901 134.735C67.3902 135.071 67.9534 135.203 68.5165 135.335C68.8981 135.484 69.4243 135.245 69.8614 135.952C70.08 136.306 70.2245 135.916 70.3875 135.713C70.5506 135.509 70.5321 135.323 70.332 135.155C69.7503 134.837 69.1502 134.334 68.387 134.034C67.0421 133.416 65.6602 132.427 64.1523 132.013C62.8444 131.767 61.6626 130.946 60.3548 130.7C60.1732 130.718 59.9732 130.55 59.6286 130.772Z" fill="#040404"/>
<path d="M42.5907 132.528C46.6972 131.176 50.8777 130.572 54.9312 130.546C53.7062 129.347 43.9032 130.888 42.5907 132.528Z" fill="#040404"/>
<path d="M59.0697 125.691C57.9376 125.426 56.8611 125.721 55.7475 125.643C54.634 125.565 53.5575 125.861 52.4254 125.596C52.2429 125.614 52.0604 125.632 51.8779 125.651C51.5314 125.874 50.9654 125.741 51.0024 126.115C51.0579 126.675 51.5684 126.247 51.9334 126.211C53.9965 126.572 56.1681 126.168 58.1757 125.968C58.5592 126.119 58.9427 126.269 59.0697 125.691Z" fill="#040404"/>
<path d="M41.7046 133.155C41.3031 132.818 40.9386 132.854 40.7749 133.059C39.9007 133.523 38.8258 133.818 37.9332 134.095C37.405 134.335 36.8583 134.39 36.2745 134.071C36.0738 133.902 35.9101 134.107 35.9286 134.293C35.9471 134.48 35.9656 134.666 36.1664 134.835C36.3486 134.817 36.5308 134.799 36.7131 134.781C38.1709 134.636 39.4281 134.323 40.6297 133.45C40.9941 133.414 41.3586 133.378 41.7046 133.155Z" fill="#040404"/>
<path d="M70.8627 129.163C70.9887 128.588 70.5886 128.252 70.1885 127.916C68.8066 126.927 67.3171 126.699 65.8277 126.471C65.6462 126.489 65.4646 126.507 65.4831 126.693C65.5016 126.878 65.7017 127.046 65.8832 127.028C66.2649 127.178 66.4464 127.16 66.8095 127.124C68.1359 127.556 69.6438 127.97 70.8627 129.163Z" fill="#040404"/>
<path d="M41.5415 127.618C43.2388 128.015 44.8805 127.852 46.4852 127.316C46.6676 127.298 46.8315 127.093 46.612 126.737C46.4111 126.569 46.4296 126.756 46.2472 126.774C45.3722 127.238 44.2777 127.346 43.1647 127.268C42.6175 127.323 42.0702 127.377 41.5415 127.618Z" fill="#040404"/>
<path d="M45.1933 95.9489C45.1193 95.2078 44.1033 94.1855 43.3976 94.4422C42.4925 94.5315 41.8793 95.7146 41.9902 96.8262C42.0827 97.7525 42.4817 98.0873 44.292 97.9087C45.1972 97.8194 45.3227 97.2457 45.1933 95.9489Z" fill="#040404"/>
<path d="M59.9575 52.4727C59.9575 52.4727 60.1201 52.2695 60.3012 52.2516C62.4335 49.7954 64.9279 47.3035 67.2597 45.0147C67.7474 44.4051 68.2167 43.6102 68.9041 43.1681C69.0852 43.1502 69.0482 42.7796 68.8486 42.6121C68.2499 42.1097 67.6327 41.4221 66.7087 41.3261C66.3281 41.1765 66.0029 41.5829 65.8588 41.9714C63.782 44.9836 61.7053 47.9958 60.3899 51.3071C60.2273 51.5103 60.0832 51.8989 59.9206 52.1021C59.5769 52.3231 59.5954 52.5084 59.9575 52.4727Z" fill="#040404"/>
<path d="M49.1062 46.111C49.1901 43.3126 48.7157 40.3831 49.5197 37.5137C49.6628 37.1276 49.4644 36.9611 49.0861 36.8124C48.3477 36.6992 47.6461 36.9543 46.9445 37.2095C46.5845 37.245 46.4413 37.6311 46.6581 37.9817C46.9669 39.2534 47.0957 40.5428 47.3862 41.6302C47.7502 43.4545 47.9158 45.1123 48.4598 46.9188C48.4966 47.2872 48.7318 47.8221 48.7686 48.1904C48.787 48.3746 49.0038 48.7253 49.1838 48.7076C49.3638 48.6898 49.3454 48.5056 49.3086 48.1372C49.2534 47.5846 49.1798 46.8478 49.1062 46.111Z" fill="#040404"/>
<path d="M60.9611 39.1291C60.4187 39.1826 60.4557 39.5526 60.3118 39.9405C59.7734 41.862 59.0542 43.8013 58.5157 45.7229C58.0842 46.8865 58.0327 48.1994 57.0219 49.0465C56.8595 49.2493 57.0588 49.4165 57.2581 49.5837C57.4573 49.7509 57.8189 49.7153 57.9628 49.3274C58.5751 48.1459 59.2059 47.1495 59.6375 45.9859C60.5375 44.0288 61.4375 42.0716 63.1346 40.7832C63.4777 40.5625 63.6216 40.1746 63.2415 40.0253C62.4814 39.7265 61.7212 39.4278 61.1234 38.9262C61.1604 39.2963 60.9796 39.3141 60.9611 39.1291Z" fill="#040404"/>
<path d="M56.3759 37.5538C56.0151 37.5894 55.6542 37.625 55.6911 37.9942C55.5476 38.3813 55.3856 38.5837 55.4225 38.953C55.1763 41.9607 54.7313 44.8015 54.1243 47.8447C54.1427 48.0293 54.1612 48.214 54.1796 48.3986C54.2165 48.7679 54.235 48.9526 54.6143 49.1016C54.9751 49.0661 54.9382 48.6968 54.9198 48.5121C55.1331 46.9994 55.5453 45.6536 56.1379 44.2899C56.7305 42.9263 57.3415 41.7473 57.9341 40.3837C58.8507 38.6152 58.8322 38.4305 57.1346 37.852C56.5748 37.7207 56.3759 37.5538 56.3759 37.5538Z" fill="#040404"/>
<path d="M41.4841 49.6706C41.2299 48.95 40.9573 48.0447 40.5228 47.3419C39.5799 45.1977 38.799 42.8512 38.1984 40.4868C38.1616 40.1176 38.1062 39.5638 37.5466 39.4325C36.825 39.5037 36.3023 39.7416 35.8164 40.3487C35.4925 40.7535 35.7098 41.105 35.9271 41.4564C36.5789 42.5107 37.4296 43.7318 38.0814 44.7861C39.1494 46.3587 39.8565 47.9668 40.7625 49.7418C40.9613 49.9086 40.9982 50.2778 41.359 50.2422C41.7014 50.0221 41.5025 49.8552 41.4841 49.6706Z" fill="#040404"/>
<path d="M44.4223 45.6511C44.2198 43.624 43.6756 41.8167 43.6531 39.7719C43.6491 37.9113 43.469 37.929 41.8483 38.0888C40.7679 38.1953 40.6062 38.3973 41.2569 39.4497C42.3782 41.5724 42.7976 43.9503 43.5772 46.2927C43.8125 46.8278 43.8677 47.3807 44.103 47.9158C44.1214 48.1 44.1583 48.4686 44.5 48.2488C44.8601 48.2133 44.8233 47.8448 44.8049 47.6605C44.5696 47.1254 44.496 46.3883 44.4223 45.6511Z" fill="#040404"/>
<path d="M52.8327 50.0002C52.9575 49.4297 53.0639 48.6751 53.1703 47.9205C53.3648 46.227 53.5408 44.3492 53.7352 42.6557C53.7167 42.4715 53.8784 42.2695 53.4999 42.1208C53.3199 42.1385 53.3383 42.3228 53.1767 42.5247C53.0559 44.9551 52.7551 47.4033 52.2559 49.6849C52.2743 49.8691 52.2927 50.0534 52.3111 50.2376C52.3295 50.4218 52.5463 50.7725 52.7079 50.5706C53.248 50.5173 52.8695 50.3686 52.8327 50.0002Z" fill="#040404"/>
<path d="M39.7707 41.2692C40.4774 42.8762 41.0039 44.5011 41.6921 45.9236C41.7106 46.1081 41.9093 46.2748 42.0711 46.0726C42.2514 46.0548 42.233 45.8703 42.0343 45.7036C41.5263 44.2633 41.0367 43.0074 40.3484 41.5848C40.1497 41.4181 40.1313 41.2336 39.7707 41.2692Z" fill="#040404"/>
<path d="M38.5888 55.6887C38.7144 55.1151 38.3338 54.9656 38.1343 54.7982C36.9558 53.9791 36.1394 53.1243 35.1419 52.2874C34.9424 52.12 34.9239 51.9348 34.7614 52.1379C34.5988 52.341 34.7799 52.3231 34.7983 52.5084C36.0138 53.6979 37.2108 54.7022 38.5888 55.6887Z" fill="#040404"/>
<path d="M45.6508 44.7686C45.761 45.8723 45.6914 46.9937 45.7833 47.9135C45.8016 48.0974 45.8384 48.4653 46.1979 48.4299C46.3776 48.4122 46.3409 48.0443 46.3225 47.8603C46.2123 46.7566 46.2819 45.6352 45.8305 44.7508C45.8305 44.7508 45.8305 44.7508 45.6508 44.7686Z" fill="#040404"/>
<path d="M43.7727 50.1591C43.4818 49.0701 43.0108 47.9988 42.5397 46.9276C42.341 46.7609 42.3042 46.392 41.9437 46.4275C41.6016 46.6475 41.9805 46.7964 42.1792 46.9631C42.6318 47.8499 42.9411 49.1234 43.3937 50.0101C43.4122 50.1946 43.2688 50.5813 43.6293 50.5458C43.8279 50.7125 43.7911 50.3435 43.7727 50.1591Z" fill="#040404"/>
<path d="M66.3021 46.3997C64.9647 47.6543 64.0264 49.2437 63.0511 50.4626C62.8885 50.6657 62.8885 50.6657 62.907 50.851C63.1065 51.0184 63.2691 50.8153 63.2506 50.63C63.9008 49.8174 64.551 49.0048 65.0202 48.2101C65.3453 47.8038 65.6519 47.2123 66.1766 46.9734C66.3576 46.9555 66.5202 46.7524 66.3021 46.3997Z" fill="#040404"/>
<path d="M51.6041 41.5817C51.5857 41.3975 51.5673 41.2133 51.3689 41.0468L51.1705 40.8803C50.9905 40.8981 51.0089 41.0823 51.0089 41.0823C51.1193 42.1877 51.0681 43.4951 50.8184 44.6359C50.8368 44.8202 50.8552 45.0044 51.0353 44.9866C51.2153 44.9689 51.1969 44.7847 51.1969 44.7847C51.4465 43.6438 51.5345 42.7049 51.6041 41.5817Z" fill="#040404"/>
<path d="M36.3145 47.3559C37.1485 48.3947 37.9825 49.4335 38.8349 50.6572C38.8349 50.6572 39.0342 50.8244 39.1965 50.6216C39.3773 50.6037 39.3588 50.4187 39.1595 50.2515C38.3256 49.2128 37.6539 47.9712 36.6576 47.1353C36.4953 47.3381 36.3145 47.3559 36.3145 47.3559Z" fill="#040404"/>
<path d="M55.0471 51.8123C55.8566 50.8007 55.8895 49.3065 56.1395 48.1637C55.33 49.1753 55.2787 50.4849 55.0471 51.8123Z" fill="#040404"/>
<path d="M63.4192 43.3606C63.0391 43.2112 62.8953 43.5991 62.8953 43.5991C62.4268 44.3926 62.1391 45.1684 61.6706 45.9619C61.5083 46.1648 61.5268 46.3498 61.7076 46.332C61.9068 46.4992 62.0876 46.4814 62.2499 46.2785C62.5192 45.3177 62.9692 44.3392 63.4192 43.3606Z" fill="#040404"/>
<path d="M37.8267 46.1231C37.1921 45.2517 36.9006 44.1596 36.1037 43.491C36.1037 43.491 35.9229 43.5088 35.7421 43.5267C35.7421 43.5267 35.5799 43.7295 35.7606 43.7116C36.3952 44.5831 36.8676 45.6573 37.8267 46.1231Z" fill="#040404"/>
<path d="M31.4801 48.9547C31.9345 49.8448 32.7138 50.3289 33.3306 51.016C33.3306 51.016 33.53 51.1833 33.6925 50.9803C33.855 50.7773 33.6741 50.7951 33.6556 50.61C32.8578 49.9407 32.2594 49.4388 31.4801 48.9547Z" fill="#040404"/>
<path d="M33.2295 42.4859C32.8865 42.7065 32.905 42.8914 33.1041 43.0585C33.5025 43.3927 33.7202 43.7448 33.9378 44.0968C33.9563 44.2817 34.137 44.2639 34.3177 44.2461C34.48 44.0433 34.2993 44.0611 34.2808 43.8762C34.0632 43.5242 33.6648 43.19 33.4472 42.838C33.4287 42.653 33.248 42.6709 33.2295 42.4859Z" fill="#040404"/>
<path d="M38.663 37.6841C38.4826 37.7019 38.3207 37.9042 38.5195 38.071C38.7736 38.7913 39.0092 39.3271 39.6056 39.8273C39.3515 39.107 39.0974 38.3867 38.663 37.6841Z" fill="#040404"/>
<path d="M45.3227 22.9425C45.4694 24.4116 45.5977 25.6969 45.726 26.9823C46.0337 28.25 45.8215 29.7544 46.1293 31.0221C46.1476 31.2058 46.1842 31.573 46.3637 31.5553C46.5431 31.5376 46.5064 31.1704 46.4881 30.9867C46.4109 28.3983 45.9749 25.8452 45.6999 23.0908C45.6999 23.0908 45.6816 22.9071 45.3227 22.9425Z" fill="#040404"/>
<path d="M46.7069 20.2183C46.5601 18.7484 46.1971 16.9287 46.032 15.275C46.0136 15.0912 45.9769 14.7238 45.7974 14.7415C45.4383 14.7769 45.6362 14.9429 45.6729 15.3104C46.0726 17.4976 46.2927 19.7025 46.5129 21.9074C46.5313 22.0911 46.5496 22.2749 46.5679 22.4586C46.5863 22.6424 46.623 23.0099 46.8025 22.9922C47.1616 22.9567 46.9454 22.607 47.1066 22.4055C46.8537 21.6882 46.7986 21.137 46.7069 20.2183Z" fill="#040404"/>
<path d="M45.2629 18.697C45.259 16.8423 44.9145 15.2067 44.7311 13.3696C44.7127 13.1859 44.6944 13.0022 44.5332 13.2036C44.3537 13.2213 44.3721 13.405 44.3904 13.5887C44.5188 14.8747 44.6472 16.1606 44.7756 17.4465C44.8306 17.9976 44.8672 18.365 45.2629 18.697Z" fill="#040404"/>
<path d="M43.7987 4.01322C43.5131 4.78342 43.6048 5.70192 43.6782 6.43672C43.8066 7.72261 43.9349 9.0085 44.0633 10.2944C44.0817 10.4781 44.1 10.6618 44.1183 10.8455C44.1367 11.0292 44.155 11.2129 44.3345 11.1952C44.514 11.1775 44.4957 10.9938 44.4774 10.8101C44.349 9.52419 44.2206 8.2383 43.9127 6.97011C43.8577 6.41901 43.7843 5.68421 43.9088 5.11541C44.0516 4.73032 44.1944 4.34522 43.7987 4.01322Z" fill="#040404"/>
<path d="M45.4645 11.4436C45.1598 12.0314 45.4133 12.7502 45.307 13.5045C45.3254 13.6887 45.3438 13.8728 45.5237 13.8551C45.7037 13.8373 45.6853 13.6532 45.8653 13.6355C45.9716 12.8812 45.7181 12.1624 45.4645 11.4436Z" fill="#040404"/>
<path d="M43.1304 52.7984C43.1489 52.984 43.0044 53.3732 43.3673 53.3374C43.9116 53.2836 44.3115 53.6191 44.8743 53.751C44.4374 53.0442 44.2375 52.8765 43.1304 52.7984Z" fill="#040404"/>
<path d="M53.2539 52.5334C53.2354 52.3481 53.0543 52.3659 53.0543 52.3659C52.692 52.4017 52.5293 52.605 52.3667 52.8082C52.204 53.0114 51.8602 53.2326 52.2595 53.5675C52.4591 53.7349 52.6033 53.3464 52.7659 53.1431C52.9286 52.9399 53.0912 52.7367 53.2724 52.7188C53.0912 52.7367 53.2724 52.7188 53.2539 52.5334Z" fill="#040404"/>
<path d="M46.0833 52.8881C45.8464 52.3493 45.2654 52.0319 44.7213 52.0856C44.9582 52.6244 45.5207 52.7562 46.0833 52.8881Z" fill="#040404"/>
</g>
</svg>
